<?xml version="1.0" encoding="UTF-8" standalone="no"?>
<!DOCTYPE svg PUBLIC "-//W3C//DTD SVG 1.1//EN" "http://www.w3.org/Graphics/SVG/1.1/DTD/svg11.dtd">
<svg width="100%" height="100%" viewBox="0 0 774 207" version="1.1" xmlns="http://www.w3.org/2000/svg" xmlns:xlink="http://www.w3.org/1999/xlink" xml:space="preserve" xmlns:serif="http://www.serif.com/" style="fill-rule:evenodd;clip-rule:evenodd;stroke-linejoin:round;stroke-miterlimit:2;">
    <g transform="matrix(12.0689,0,0,12.0689,-2868.46,-3292.99)">
        <path d="M247.164,277.143C247.164,277.823 246.988,278.447 246.636,279.015C246.284,279.583 245.772,280.047 245.1,280.407C244.428,280.767 243.628,280.979 242.7,281.043L242.184,283.935C241.984,285.047 241.44,285.603 240.552,285.603C240.064,285.603 239.614,285.459 239.202,285.171C238.79,284.883 238.46,284.443 238.212,283.851C237.964,283.259 237.84,282.531 237.84,281.667C237.84,280.043 238.102,278.665 238.626,277.533C239.15,276.401 239.854,275.553 240.738,274.989C241.622,274.425 242.596,274.143 243.66,274.143C244.412,274.143 245.05,274.275 245.574,274.539C246.098,274.803 246.494,275.161 246.762,275.613C247.03,276.065 247.164,276.575 247.164,277.143ZM242.916,279.807C244.556,279.599 245.376,278.747 245.376,277.251C245.376,276.723 245.202,276.293 244.854,275.961C244.506,275.629 243.968,275.463 243.24,275.463C242.416,275.463 241.698,275.723 241.086,276.243C240.474,276.763 240.002,277.485 239.67,278.409C239.338,279.333 239.172,280.387 239.172,281.571C239.172,282.067 239.222,282.507 239.322,282.891C239.422,283.275 239.55,283.573 239.706,283.785C239.862,283.997 240.012,284.103 240.156,284.103C240.356,284.103 240.508,283.827 240.612,283.275L241.008,281.007C240.696,280.959 240.56,280.939 240.6,280.947C240.36,280.907 240.204,280.833 240.132,280.725C240.06,280.617 240.024,280.479 240.024,280.311C240.024,280.135 240.074,279.995 240.174,279.891C240.274,279.787 240.412,279.735 240.588,279.735C240.668,279.735 240.728,279.739 240.768,279.747C240.96,279.779 241.108,279.799 241.212,279.807C241.316,279.183 241.464,278.347 241.656,277.299C241.704,277.027 241.814,276.833 241.986,276.717C242.158,276.601 242.36,276.543 242.592,276.543C242.856,276.543 243.046,276.593 243.162,276.693C243.278,276.793 243.336,276.951 243.336,277.167C243.336,277.295 243.328,277.399 243.312,277.479L242.916,279.807Z" style="fill:rgb(167,0,61);fill-rule:nonzero;"/>
        <path d="M247.98,284.355C247.484,284.355 247.088,284.175 246.792,283.815C246.496,283.455 246.348,282.983 246.348,282.399C246.348,281.759 246.496,281.153 246.792,280.581C247.088,280.009 247.482,279.549 247.974,279.201C248.466,278.853 248.988,278.679 249.54,278.679C249.716,278.679 249.834,278.713 249.894,278.781C249.954,278.849 250.004,278.971 250.044,279.147C250.212,279.115 250.388,279.099 250.572,279.099C250.964,279.099 251.16,279.239 251.16,279.519C251.16,279.687 251.1,280.087 250.98,280.719C250.796,281.639 250.704,282.279 250.704,282.639C250.704,282.759 250.734,282.855 250.794,282.927C250.854,282.999 250.932,283.035 251.028,283.035C251.18,283.035 251.364,282.937 251.58,282.741C251.796,282.545 252.088,282.227 252.456,281.787C252.552,281.675 252.66,281.619 252.78,281.619C252.884,281.619 252.966,281.667 253.026,281.763C253.086,281.859 253.116,281.991 253.116,282.159C253.116,282.479 253.04,282.727 252.888,282.903C252.56,283.311 252.212,283.655 251.844,283.935C251.476,284.215 251.12,284.355 250.776,284.355C250.512,284.355 250.27,284.265 250.05,284.085C249.83,283.905 249.664,283.659 249.552,283.347C249.136,284.019 248.612,284.355 247.98,284.355ZM248.412,283.143C248.588,283.143 248.756,283.039 248.916,282.831C249.076,282.623 249.192,282.347 249.264,282.003L249.708,279.795C249.372,279.803 249.062,279.929 248.778,280.173C248.494,280.417 248.268,280.739 248.1,281.139C247.932,281.539 247.848,281.963 247.848,282.411C247.848,282.659 247.898,282.843 247.998,282.963C248.098,283.083 248.236,283.143 248.412,283.143Z" style="fill:rgb(167,0,61);fill-rule:nonzero;"/>
        <path d="M258.288,281.643C258.392,281.643 258.474,281.693 258.534,281.793C258.594,281.893 258.624,282.019 258.624,282.171C258.624,282.355 258.596,282.499 258.54,282.603C258.484,282.707 258.396,282.799 258.276,282.879C257.588,283.343 257.084,283.687 256.764,283.911L255.996,284.427C255.692,286.083 255.294,287.385 254.802,288.333C254.31,289.281 253.684,289.755 252.924,289.755C252.516,289.755 252.184,289.629 251.928,289.377C251.672,289.125 251.544,288.795 251.544,288.387C251.544,287.819 251.768,287.209 252.216,286.557C252.664,285.905 253.504,285.103 254.736,284.151L254.808,283.683C254.672,283.899 254.494,284.065 254.274,284.181C254.054,284.297 253.836,284.355 253.62,284.355C253.124,284.355 252.728,284.175 252.432,283.815C252.136,283.455 251.988,282.983 251.988,282.399C251.988,281.759 252.136,281.153 252.432,280.581C252.728,280.009 253.122,279.549 253.614,279.201C254.106,278.853 254.628,278.679 255.18,278.679C255.356,278.679 255.474,278.713 255.534,278.781C255.594,278.849 255.644,278.971 255.684,279.147C255.836,279.115 256.012,279.099 256.212,279.099C256.412,279.099 256.554,279.129 256.638,279.189C256.722,279.249 256.764,279.367 256.764,279.543C256.764,279.639 256.76,279.715 256.752,279.771C256.72,280.019 256.62,280.647 256.452,281.655C256.42,281.847 256.386,282.057 256.35,282.285C256.314,282.513 256.276,282.755 256.236,283.011C256.852,282.531 257.444,282.107 258.012,281.739C258.116,281.675 258.208,281.643 258.288,281.643ZM254.052,283.143C254.236,283.143 254.412,283.031 254.58,282.807C254.748,282.583 254.868,282.263 254.94,281.847L255.324,279.795C254.996,279.803 254.692,279.929 254.412,280.173C254.132,280.417 253.908,280.739 253.74,281.139C253.572,281.539 253.488,281.963 253.488,282.411C253.488,282.659 253.538,282.843 253.638,282.963C253.738,283.083 253.876,283.143 254.052,283.143ZM253.056,288.591C253.256,288.591 253.482,288.351 253.734,287.871C253.986,287.391 254.228,286.627 254.46,285.579C253.844,286.107 253.4,286.583 253.128,287.007C252.856,287.431 252.72,287.803 252.72,288.123C252.72,288.259 252.746,288.371 252.798,288.459C252.85,288.547 252.936,288.591 253.056,288.591Z" style="fill:rgb(167,0,61);fill-rule:nonzero;"/>
        <path d="M263.244,281.619C263.348,281.619 263.43,281.667 263.49,281.763C263.55,281.859 263.58,281.991 263.58,282.159C263.58,282.479 263.504,282.727 263.352,282.903C263.056,283.263 262.638,283.595 262.098,283.899C261.558,284.203 260.98,284.355 260.364,284.355C259.524,284.355 258.872,284.127 258.408,283.671C257.944,283.215 257.712,282.591 257.712,281.799C257.712,281.247 257.828,280.733 258.06,280.257C258.292,279.781 258.614,279.403 259.026,279.123C259.438,278.843 259.904,278.703 260.424,278.703C260.888,278.703 261.26,278.841 261.54,279.117C261.82,279.393 261.96,279.767 261.96,280.239C261.96,280.791 261.762,281.265 261.366,281.661C260.97,282.057 260.3,282.371 259.356,282.603C259.556,282.971 259.936,283.155 260.496,283.155C260.856,283.155 261.266,283.029 261.726,282.777C262.186,282.525 262.584,282.195 262.92,281.787C263.016,281.675 263.124,281.619 263.244,281.619ZM260.22,279.879C259.924,279.879 259.674,280.051 259.47,280.395C259.266,280.739 259.164,281.155 259.164,281.643L259.164,281.667C259.636,281.555 260.008,281.387 260.28,281.163C260.552,280.939 260.688,280.679 260.688,280.383C260.688,280.231 260.646,280.109 260.562,280.017C260.478,279.925 260.364,279.879 260.22,279.879Z" style="fill:rgb(167,0,61);fill-rule:nonzero;"/>
    </g>
    <g transform="matrix(12.0689,0,0,12.0689,-2868.46,-3292.99)">
        <path d="M264.816,284.355C264.52,284.355 264.308,284.289 264.18,284.157C264.052,284.025 263.988,283.775 263.988,283.407C263.988,283.159 264.014,282.841 264.066,282.453C264.118,282.065 264.204,281.531 264.324,280.851C264.532,279.595 264.696,278.507 264.816,277.587C264.888,277.011 264.924,276.531 264.924,276.147C264.924,275.787 264.792,275.607 264.528,275.607C264.32,275.607 264.07,275.713 263.778,275.925C263.486,276.137 263.164,276.475 262.812,276.939C262.7,277.091 262.576,277.167 262.44,277.167C262.328,277.167 262.23,277.113 262.146,277.005C262.062,276.897 262.02,276.775 262.02,276.639C262.02,276.511 262.046,276.381 262.098,276.249C262.15,276.117 262.236,275.967 262.356,275.799C262.74,275.263 263.168,274.849 263.64,274.557C264.112,274.265 264.584,274.119 265.056,274.119C265.496,274.119 265.834,274.259 266.07,274.539C266.306,274.819 266.424,275.227 266.424,275.763C266.424,275.979 266.404,276.233 266.364,276.525C266.324,276.817 266.288,277.055 266.256,277.239C266.224,277.423 266.2,277.551 266.184,277.623C266.64,276.319 267.152,275.409 267.72,274.893C268.288,274.377 268.912,274.119 269.592,274.119C270.112,274.119 270.522,274.303 270.822,274.671C271.122,275.039 271.272,275.559 271.272,276.231C271.272,276.495 271.236,276.823 271.164,277.215C271.564,276.111 272.032,275.319 272.568,274.839C273.104,274.359 273.72,274.119 274.416,274.119C274.976,274.119 275.406,274.299 275.706,274.659C276.006,275.019 276.156,275.523 276.156,276.171C276.156,276.523 276.104,276.951 276,277.455L275.268,280.887C275.188,281.287 275.148,281.631 275.148,281.919C275.148,282.255 275.226,282.507 275.382,282.675C275.538,282.843 275.756,282.927 276.036,282.927C276.3,282.927 276.558,282.839 276.81,282.663C277.062,282.487 277.36,282.195 277.704,281.787C277.8,281.675 277.908,281.619 278.028,281.619C278.132,281.619 278.214,281.667 278.274,281.763C278.334,281.859 278.364,281.991 278.364,282.159C278.364,282.471 278.288,282.719 278.136,282.903C277.72,283.407 277.308,283.775 276.9,284.007C276.492,284.239 276.064,284.355 275.616,284.355C274.936,284.355 274.404,284.153 274.02,283.749C273.636,283.345 273.444,282.803 273.444,282.123C273.444,281.651 273.54,280.967 273.732,280.071L274.212,277.875C274.228,277.803 274.256,277.675 274.296,277.491C274.336,277.307 274.368,277.133 274.392,276.969C274.416,276.805 274.428,276.643 274.428,276.483C274.428,276.203 274.374,275.993 274.266,275.853C274.158,275.713 274.004,275.643 273.804,275.643C273.428,275.643 273.034,275.885 272.622,276.369C272.21,276.853 271.818,277.655 271.446,278.775C271.074,279.895 270.772,281.351 270.54,283.143C270.484,283.623 270.386,283.945 270.246,284.109C270.106,284.273 269.88,284.355 269.568,284.355C269.296,284.355 269.098,284.291 268.974,284.163C268.85,284.035 268.788,283.795 268.788,283.443C268.788,283.115 268.832,282.685 268.92,282.153C269.008,281.621 269.12,280.995 269.256,280.275C269.624,278.339 269.808,277.091 269.808,276.531C269.808,276.227 269.75,276.003 269.634,275.859C269.518,275.715 269.344,275.643 269.112,275.643C268.72,275.643 268.316,275.865 267.9,276.309C267.484,276.753 267.078,277.541 266.682,278.673C266.286,279.805 265.956,281.335 265.692,283.263C265.636,283.671 265.554,283.955 265.446,284.115C265.338,284.275 265.128,284.355 264.816,284.355Z" style="fill:rgb(101,26,50);fill-rule:nonzero;"/>
        <path d="M281.592,278.703C281.776,278.703 281.904,278.727 281.976,278.775C282.048,278.823 282.084,278.903 282.084,279.015C282.084,279.207 281.98,279.891 281.772,281.067C281.588,282.195 281.48,282.863 281.448,283.071C281.152,285.127 280.744,286.755 280.224,287.955C279.704,289.155 279.012,289.755 278.148,289.755C277.74,289.755 277.408,289.629 277.152,289.377C276.896,289.125 276.768,288.795 276.768,288.387C276.768,288.011 276.854,287.627 277.026,287.235C277.198,286.843 277.518,286.393 277.986,285.885C278.454,285.377 279.116,284.795 279.972,284.139L280.008,283.863C280.064,283.567 280.128,283.143 280.2,282.591C280.04,283.167 279.816,283.605 279.528,283.905C279.24,284.205 278.936,284.355 278.616,284.355C278.256,284.355 277.962,284.189 277.734,283.857C277.506,283.525 277.392,283.111 277.392,282.615C277.392,282.015 277.432,281.465 277.512,280.965C277.592,280.465 277.724,279.935 277.908,279.375C277.988,279.135 278.1,278.963 278.244,278.859C278.388,278.755 278.616,278.703 278.928,278.703C279.104,278.703 279.226,278.731 279.294,278.787C279.362,278.843 279.396,278.927 279.396,279.039C279.396,279.103 279.352,279.319 279.264,279.687C279.184,279.983 279.12,280.251 279.072,280.491C279.008,280.819 278.952,281.133 278.904,281.433C278.856,281.733 278.832,281.979 278.832,282.171C278.832,282.475 278.916,282.627 279.084,282.627C279.204,282.627 279.354,282.507 279.534,282.267C279.714,282.027 279.906,281.663 280.11,281.175C280.314,280.687 280.512,280.087 280.704,279.375C280.768,279.135 280.866,278.963 280.998,278.859C281.13,278.755 281.328,278.703 281.592,278.703ZM278.28,288.591C278.48,288.591 278.704,288.359 278.952,287.895C279.2,287.431 279.448,286.659 279.696,285.579C279.08,286.099 278.634,286.573 278.358,287.001C278.082,287.429 277.944,287.803 277.944,288.123C277.944,288.259 277.97,288.371 278.022,288.459C278.074,288.547 278.16,288.591 278.28,288.591Z" style="fill:rgb(101,26,50);fill-rule:nonzero;"/>
        <path d="M284.952,284.619C284.536,284.619 284.218,284.523 283.998,284.331C283.778,284.139 283.668,283.923 283.668,283.683C283.668,283.475 283.744,283.295 283.896,283.143C284.048,282.991 284.272,282.915 284.568,282.915C284.672,282.915 284.794,282.925 284.934,282.945C285.074,282.965 285.18,282.979 285.252,282.987C285.244,282.779 285.198,282.583 285.114,282.399C285.03,282.215 284.924,282.037 284.796,281.865C284.668,281.693 284.548,281.543 284.436,281.415C284.188,281.887 283.942,282.279 283.698,282.591C283.454,282.903 283.188,283.199 282.9,283.479C282.756,283.623 282.604,283.695 282.444,283.695C282.316,283.695 282.212,283.649 282.132,283.557C282.052,283.465 282.012,283.351 282.012,283.215C282.012,283.055 282.068,282.907 282.18,282.771L282.336,282.579C282.776,282.035 283.108,281.587 283.332,281.235C283.468,281.003 283.628,280.693 283.812,280.305C283.996,279.917 284.176,279.515 284.352,279.099C284.504,278.747 284.82,278.571 285.3,278.571C285.524,278.571 285.68,278.591 285.768,278.631C285.856,278.671 285.9,278.735 285.9,278.823C285.9,278.871 285.884,278.947 285.852,279.051C285.82,279.155 285.776,279.259 285.72,279.363C285.576,279.651 285.504,279.895 285.504,280.095C285.504,280.215 285.546,280.347 285.63,280.491C285.714,280.635 285.844,280.815 286.02,281.031C286.276,281.367 286.47,281.653 286.602,281.889C286.734,282.125 286.8,282.383 286.8,282.663C286.8,282.743 286.792,282.855 286.776,282.999C287.168,282.847 287.628,282.443 288.156,281.787C288.252,281.675 288.36,281.619 288.48,281.619C288.584,281.619 288.666,281.667 288.726,281.763C288.786,281.859 288.816,281.991 288.816,282.159C288.816,282.463 288.74,282.711 288.588,282.903C288.188,283.399 287.806,283.737 287.442,283.917C287.078,284.097 286.628,284.195 286.092,284.211C285.772,284.483 285.392,284.619 284.952,284.619Z" style="fill:rgb(101,26,50);fill-rule:nonzero;"/>
        <path d="M293.196,281.619C293.3,281.619 293.382,281.667 293.442,281.763C293.502,281.859 293.532,281.991 293.532,282.159C293.532,282.479 293.456,282.727 293.304,282.903C293.008,283.263 292.59,283.595 292.05,283.899C291.51,284.203 290.932,284.355 290.316,284.355C289.476,284.355 288.824,284.127 288.36,283.671C287.896,283.215 287.664,282.591 287.664,281.799C287.664,281.247 287.78,280.733 288.012,280.257C288.244,279.781 288.566,279.403 288.978,279.123C289.39,278.843 289.856,278.703 290.376,278.703C290.84,278.703 291.212,278.841 291.492,279.117C291.772,279.393 291.912,279.767 291.912,280.239C291.912,280.791 291.714,281.265 291.318,281.661C290.922,282.057 290.252,282.371 289.308,282.603C289.508,282.971 289.888,283.155 290.448,283.155C290.808,283.155 291.218,283.029 291.678,282.777C292.138,282.525 292.536,282.195 292.872,281.787C292.968,281.675 293.076,281.619 293.196,281.619ZM290.172,279.879C289.876,279.879 289.626,280.051 289.422,280.395C289.218,280.739 289.116,281.155 289.116,281.643L289.116,281.667C289.588,281.555 289.96,281.387 290.232,281.163C290.504,280.939 290.64,280.679 290.64,280.383C290.64,280.231 290.598,280.109 290.514,280.017C290.43,279.925 290.316,279.879 290.172,279.879Z" style="fill:rgb(101,26,50);fill-rule:nonzero;"/>
        <path d="M297.108,281.619C297.212,281.619 297.294,281.667 297.354,281.763C297.414,281.859 297.444,281.991 297.444,282.159C297.444,282.479 297.368,282.727 297.216,282.903C296.872,283.327 296.498,283.675 296.094,283.947C295.69,284.219 295.232,284.355 294.72,284.355C294.016,284.355 293.494,284.035 293.154,283.395C292.814,282.755 292.644,281.927 292.644,280.911C292.644,279.935 292.77,278.823 293.022,277.575C293.274,276.327 293.646,275.255 294.138,274.359C294.63,273.463 295.216,273.015 295.896,273.015C296.28,273.015 296.582,273.193 296.802,273.549C297.022,273.905 297.132,274.415 297.132,275.079C297.132,276.031 296.868,277.135 296.34,278.391C295.812,279.647 295.096,280.891 294.192,282.123C294.248,282.451 294.34,282.685 294.468,282.825C294.596,282.965 294.764,283.035 294.972,283.035C295.3,283.035 295.588,282.941 295.836,282.753C296.084,282.565 296.4,282.243 296.784,281.787C296.88,281.675 296.988,281.619 297.108,281.619ZM295.632,274.203C295.448,274.203 295.24,274.535 295.008,275.199C294.776,275.863 294.572,276.687 294.396,277.671C294.22,278.655 294.124,279.599 294.108,280.503C294.676,279.567 295.128,278.629 295.464,277.689C295.8,276.749 295.968,275.891 295.968,275.115C295.968,274.507 295.856,274.203 295.632,274.203Z" style="fill:rgb(101,26,50);fill-rule:nonzero;"/>
        <path d="M301.26,280.935C301.484,280.935 301.596,281.103 301.596,281.439C301.596,282.071 301.1,282.387 300.108,282.387C299.916,282.387 299.64,282.351 299.28,282.279C299.384,282.775 299.47,283.325 299.538,283.929C299.606,284.533 299.64,285.031 299.64,285.423C299.64,286.287 299.5,286.947 299.22,287.403C298.94,287.859 298.572,288.087 298.116,288.087C297.54,288.087 297.13,287.679 296.886,286.863C296.642,286.047 296.52,284.815 296.52,283.167C296.52,281.631 296.686,280.073 297.018,278.493C297.35,276.913 297.806,275.605 298.386,274.569C298.966,273.533 299.604,273.015 300.3,273.015C300.676,273.015 300.97,273.183 301.182,273.519C301.394,273.855 301.5,274.307 301.5,274.875C301.5,276.755 300.376,278.803 298.128,281.019C298.048,281.803 298.008,282.491 298.008,283.083C298.008,283.907 298.036,284.753 298.092,285.621C298.148,286.489 298.24,286.923 298.368,286.923C298.608,286.923 298.728,286.507 298.728,285.675C298.728,285.051 298.686,284.447 298.602,283.863C298.518,283.279 298.404,282.663 298.26,282.015C298.252,281.911 298.286,281.779 298.362,281.619C298.438,281.459 298.532,281.319 298.644,281.199C298.756,281.079 298.856,281.019 298.944,281.019C299.104,281.019 299.296,281.027 299.52,281.043C299.592,281.051 299.676,281.055 299.772,281.055C300.092,281.055 300.448,281.027 300.84,280.971C300.904,280.963 300.972,280.955 301.044,280.947C301.116,280.939 301.188,280.935 301.26,280.935ZM300.048,274.203C299.904,274.203 299.726,274.447 299.514,274.935C299.302,275.423 299.092,276.069 298.884,276.873C298.676,277.677 298.496,278.527 298.344,279.423C298.984,278.695 299.476,277.937 299.82,277.149C300.164,276.361 300.34,275.623 300.348,274.935C300.348,274.447 300.248,274.203 300.048,274.203Z" style="fill:rgb(101,26,50);fill-rule:nonzero;"/>
        <g transform="matrix(0.0828574,0,0,0.0828574,228.853,255.624)">
            <path d="M272.482,375.017C268.988,380.905 266.611,386.584 265.349,392.053L112.71,392.053C110.359,392.053 108.451,390.145 108.451,387.794L108.451,379.276C108.451,376.925 110.359,375.017 112.71,375.017L272.482,375.017ZM629.295,375.017L807.475,375.017C809.825,375.017 811.734,376.925 811.734,379.276L811.734,387.794C811.734,390.145 809.825,392.053 807.475,392.053L623.369,392.053C625.476,386.875 627.451,381.196 629.295,375.017ZM330.036,375.017L580.594,375.017C578.188,378.383 576.342,381.531 575.058,384.459C573.937,387.013 573.064,389.544 572.44,392.053L323.656,392.053C325.914,386.871 328.041,381.192 330.036,375.017Z" style="fill:rgb(101,26,50);"/>
        </g>
    </g>
</svg>
