<?xml version="1.0" encoding="UTF-8" standalone="no"?>
<!DOCTYPE svg PUBLIC "-//W3C//DTD SVG 1.1//EN" "http://www.w3.org/Graphics/SVG/1.1/DTD/svg11.dtd">
<svg width="100%" height="100%" viewBox="0 0 512 512" version="1.1" xmlns="http://www.w3.org/2000/svg" xmlns:xlink="http://www.w3.org/1999/xlink" xml:space="preserve" xmlns:serif="http://www.serif.com/" style="fill-rule:evenodd;clip-rule:evenodd;stroke-linejoin:round;">
    <g transform="matrix(6.95679,0,0,13.7439,-873.877,-1130.15)">
        <path d="M199.212,91.542C199.212,86.402 190.968,82.229 180.813,82.229L144.014,82.229C133.859,82.229 125.615,86.402 125.615,91.542L125.615,110.169C125.615,115.309 133.859,119.482 144.014,119.482L180.813,119.482C190.968,119.482 199.212,115.309 199.212,110.169L199.212,91.542Z" style="fill:rgb(20,20,20);"/>
    </g>
    <g transform="matrix(1.07304,0,0,1.07304,-16.8055,-115.408)">
        <g transform="matrix(2.91622,0,0,2.91622,-1153.1,230.845)">
            <g transform="matrix(1,0,0,1,405.664,0)">
                <path d="M10.67,57.4L9.83,79.06L24.88,64.06L24.77,64.06C24.883,63.986 24.985,63.895 25.07,63.79L25.15,63.79L49.05,9C49.76,7.38 47.14,4.54 43.2,2.66C39.26,0.78 35.47,0.61 34.76,2.24L10.78,57L10.67,57.4Z" style="fill:rgb(254,187,69);fill-rule:nonzero;"/>
            </g>
            <g transform="matrix(1,0,0,1,405.664,0)">
                <path d="M34.9,1.91C34.41,3.16 35.81,5.09 38.24,6.75L14.18,61.67C12,60.22 10.78,58.25 10.75,57L34.89,1.9L34.9,1.91Z" style="fill:rgb(254,187,69);fill-rule:nonzero;"/>
            </g>
            <g transform="matrix(1,0,0,1,405.664,0)">
                <path d="M25.3,63.58C24.76,64.82 22.3,64.95 19.56,64.18L43.61,9.28C46.34,10.05 48.61,9.91 49.17,8.73L26,62C26,62 25.43,63.29 25.3,63.58Z" style="fill:rgb(254,187,69);fill-rule:nonzero;"/>
            </g>
            <g transform="matrix(1,0,0,1,405.664,0)">
                <path d="M16.64,63.07C15.785,62.669 14.962,62.201 14.18,61.67L38.24,6.75C39.04,7.299 39.883,7.784 40.76,8.2C41.68,8.635 42.633,8.996 43.61,9.28L19.61,64.18C18.589,63.9 17.595,63.528 16.64,63.07Z" style="fill:rgb(254,187,69);fill-rule:nonzero;"/>
            </g>
            <g transform="matrix(1,0,0,1,405.664,0)">
                <path d="M44.68,6.94C44.17,7.4 42.56,7.1 41.09,6.28C39.62,5.46 38.83,4.41 39.34,4C39.85,3.59 41.45,3.84 42.93,4.67C44.41,5.5 45.19,6.49 44.68,6.94Z" style="fill:rgb(254,187,69);fill-rule:nonzero;stroke:black;stroke-opacity:0.08;stroke-width:2.21px;"/>
            </g>
            <g transform="matrix(1,0,0,1,405.664,0)">
                <path d="M10,70.83L9.72,79.13L15.61,73.36C14.15,74 10.67,72.83 10,70.83Z" style="fill:rgb(254,187,69);fill-rule:nonzero;"/>
            </g>
        </g>
        <g transform="matrix(-2.91622,0,0,2.91622,1469.24,230.845)">
            <g transform="matrix(1,0,0,1,405.664,0)">
                <path d="M10.67,57.4L9.83,79.06L24.88,64.06L24.77,64.06C24.883,63.986 24.985,63.895 25.07,63.79L25.15,63.79L49.05,9C49.76,7.38 47.14,4.54 43.2,2.66C39.26,0.78 35.47,0.61 34.76,2.24L10.78,57L10.67,57.4Z" style="fill:rgb(254,187,69);fill-rule:nonzero;"/>
            </g>
            <g transform="matrix(1,0,0,1,405.664,0)">
                <path d="M34.9,1.91C34.41,3.16 35.81,5.09 38.24,6.75L14.18,61.67C12,60.22 10.78,58.25 10.75,57L34.89,1.9L34.9,1.91Z" style="fill:rgb(254,187,69);fill-rule:nonzero;"/>
            </g>
            <g transform="matrix(1,0,0,1,405.664,0)">
                <path d="M25.3,63.58C24.76,64.82 22.3,64.95 19.56,64.18L43.61,9.28C46.34,10.05 48.61,9.91 49.17,8.73L26,62C26,62 25.43,63.29 25.3,63.58Z" style="fill:rgb(254,187,69);fill-rule:nonzero;"/>
            </g>
            <g transform="matrix(1,0,0,1,405.664,0)">
                <path d="M16.64,63.07C15.785,62.669 14.962,62.201 14.18,61.67L38.24,6.75C39.04,7.299 39.883,7.784 40.76,8.2C41.68,8.635 42.633,8.996 43.61,9.28L19.61,64.18C18.589,63.9 17.595,63.528 16.64,63.07Z" style="fill:rgb(254,187,69);fill-rule:nonzero;"/>
            </g>
            <g transform="matrix(1,0,0,1,405.664,0)">
                <path d="M44.68,6.94C44.17,7.4 42.56,7.1 41.09,6.28C39.62,5.46 38.83,4.41 39.34,4C39.85,3.59 41.45,3.84 42.93,4.67C44.41,5.5 45.19,6.49 44.68,6.94Z" style="fill:rgb(254,187,69);fill-rule:nonzero;stroke:black;stroke-opacity:0.08;stroke-width:2.21px;"/>
            </g>
            <g transform="matrix(1,0,0,1,405.664,0)">
                <path d="M10,70.83L9.72,79.13L15.61,73.36C14.15,74 10.67,72.83 10,70.83Z" style="fill:rgb(254,187,69);fill-rule:nonzero;"/>
            </g>
        </g>
        <g transform="matrix(2.91622,0,0,2.91622,-959.991,230.845)">
            <g transform="matrix(1,0,0,1,405.664,0)">
                <path d="M10.67,57.4L9.83,79.06L24.88,64.06L24.77,64.06C24.883,63.986 24.985,63.895 25.07,63.79L25.15,63.79L49.05,9C49.76,7.38 47.14,4.54 43.2,2.66C39.26,0.78 35.47,0.61 34.76,2.24L10.78,57L10.67,57.4Z" style="fill:rgb(254,187,69);fill-rule:nonzero;"/>
            </g>
            <g transform="matrix(1,0,0,1,405.664,0)">
                <path d="M34.9,1.91C34.41,3.16 35.81,5.09 38.24,6.75L14.18,61.67C12,60.22 10.78,58.25 10.75,57L34.89,1.9L34.9,1.91Z" style="fill:rgb(254,187,69);fill-rule:nonzero;"/>
            </g>
            <g transform="matrix(1,0,0,1,405.664,0)">
                <path d="M25.3,63.58C24.76,64.82 22.3,64.95 19.56,64.18L43.61,9.28C46.34,10.05 48.61,9.91 49.17,8.73L26,62C26,62 25.43,63.29 25.3,63.58Z" style="fill:rgb(254,187,69);fill-rule:nonzero;"/>
            </g>
            <g transform="matrix(1,0,0,1,405.664,0)">
                <path d="M16.64,63.07C15.785,62.669 14.962,62.201 14.18,61.67L38.24,6.75C39.04,7.299 39.883,7.784 40.76,8.2C41.68,8.635 42.633,8.996 43.61,9.28L19.61,64.18C18.589,63.9 17.595,63.528 16.64,63.07Z" style="fill:rgb(254,187,69);fill-rule:nonzero;"/>
            </g>
            <g transform="matrix(1,0,0,1,405.664,0)">
                <path d="M44.68,6.94C44.17,7.4 42.56,7.1 41.09,6.28C39.62,5.46 38.83,4.41 39.34,4C39.85,3.59 41.45,3.84 42.93,4.67C44.41,5.5 45.19,6.49 44.68,6.94Z" style="fill:rgb(254,187,69);fill-rule:nonzero;stroke:black;stroke-opacity:0.08;stroke-width:2.21px;"/>
            </g>
            <g transform="matrix(1,0,0,1,405.664,0)">
                <path d="M10,70.83L9.72,79.13L15.61,73.36C14.15,74 10.67,72.83 10,70.83Z" style="fill:rgb(254,187,69);fill-rule:nonzero;"/>
            </g>
        </g>
        <g transform="matrix(-2.91622,0,0,2.91622,1661.51,230.845)">
            <g transform="matrix(1,0,0,1,405.664,0)">
                <path d="M10.67,57.4L9.83,79.06L24.88,64.06L24.77,64.06C24.883,63.986 24.985,63.895 25.07,63.79L25.15,63.79L49.05,9C49.76,7.38 47.14,4.54 43.2,2.66C39.26,0.78 35.47,0.61 34.76,2.24L10.78,57L10.67,57.4Z" style="fill:rgb(254,187,69);fill-rule:nonzero;"/>
            </g>
            <g transform="matrix(1,0,0,1,405.664,0)">
                <path d="M34.9,1.91C34.41,3.16 35.81,5.09 38.24,6.75L14.18,61.67C12,60.22 10.78,58.25 10.75,57L34.89,1.9L34.9,1.91Z" style="fill:rgb(254,187,69);fill-rule:nonzero;"/>
            </g>
            <g transform="matrix(1,0,0,1,405.664,0)">
                <path d="M25.3,63.58C24.76,64.82 22.3,64.95 19.56,64.18L43.61,9.28C46.34,10.05 48.61,9.91 49.17,8.73L26,62C26,62 25.43,63.29 25.3,63.58Z" style="fill:rgb(254,187,69);fill-rule:nonzero;"/>
            </g>
            <g transform="matrix(1,0,0,1,405.664,0)">
                <path d="M16.64,63.07C15.785,62.669 14.962,62.201 14.18,61.67L38.24,6.75C39.04,7.299 39.883,7.784 40.76,8.2C41.68,8.635 42.633,8.996 43.61,9.28L19.61,64.18C18.589,63.9 17.595,63.528 16.64,63.07Z" style="fill:rgb(254,187,69);fill-rule:nonzero;"/>
            </g>
            <g transform="matrix(1,0,0,1,405.664,0)">
                <path d="M44.68,6.94C44.17,7.4 42.56,7.1 41.09,6.28C39.62,5.46 38.83,4.41 39.34,4C39.85,3.59 41.45,3.84 42.93,4.67C44.41,5.5 45.19,6.49 44.68,6.94Z" style="fill:rgb(254,187,69);fill-rule:nonzero;stroke:black;stroke-opacity:0.08;stroke-width:2.21px;"/>
            </g>
            <g transform="matrix(1,0,0,1,405.664,0)">
                <path d="M10,70.83L9.72,79.13L15.61,73.36C14.15,74 10.67,72.83 10,70.83Z" style="fill:rgb(254,187,69);fill-rule:nonzero;"/>
            </g>
        </g>
    </g>
</svg>
