<?xml version="1.0" encoding="UTF-8" standalone="no"?>
<!DOCTYPE svg PUBLIC "-//W3C//DTD SVG 1.1//EN" "http://www.w3.org/Graphics/SVG/1.1/DTD/svg11.dtd">
<svg width="100%" height="100%" viewBox="0 0 661 185" version="1.1" xmlns="http://www.w3.org/2000/svg" xmlns:xlink="http://www.w3.org/1999/xlink" xml:space="preserve" xmlns:serif="http://www.serif.com/" style="fill-rule:evenodd;clip-rule:evenodd;stroke-linejoin:round;">
    <g transform="matrix(1.0079,0,0,1.01702,-58.2191,-12.9728)">
        <g transform="matrix(1.0122,0,0,1.00312,59.3569,12.3049)">
            <path d="M150.537,100.48C150.654,93.832 152.243,87.524 155.303,81.558C158.485,75.353 162.721,70.363 168.01,66.587C173.3,62.812 178.912,60.925 184.846,60.925C186.738,60.925 188.007,61.294 188.652,62.031C189.297,62.769 189.835,64.092 190.265,66.002C191.899,65.655 193.791,65.481 195.941,65.481C198.091,65.481 199.618,65.806 200.521,66.457C201.424,67.108 201.876,68.388 201.876,70.298C201.876,71.339 201.833,72.163 201.747,72.771C201.403,75.461 200.328,82.274 198.521,93.209C198.177,95.292 197.812,97.57 197.425,100.043C197.038,102.517 196.629,105.142 196.199,107.919C201.673,103.616 206.97,99.727 212.091,96.253C212.075,95.765 212.068,95.271 212.068,94.771C212.068,88.783 213.315,83.207 215.809,78.043C218.303,72.879 221.765,68.779 226.194,65.741C230.624,62.704 235.634,61.185 241.224,61.185C246.212,61.185 250.212,62.682 253.222,65.676C256.232,68.67 257.737,72.728 257.737,77.848C257.737,83.836 255.609,88.978 251.351,93.274C247.094,97.57 239.848,100.976 229.613,103.493C231.677,107.485 235.161,109.481 240.063,109.481C243.589,109.481 246.492,108.657 248.771,107.008C251.05,105.359 256.011,100.732 259.021,96.826C260.053,95.525 258.899,96.724 260.189,96.724C261.307,96.724 261.003,103.778 259.652,107.937C258.687,110.906 256.039,117.292 252.125,119.375C248.212,121.458 243.546,122.499 238.128,122.499C229.871,122.499 223.464,120.004 218.905,115.014C217.222,113.171 215.849,111.089 214.787,108.766C209.079,112.663 204.775,115.635 201.876,117.683L193.619,123.28C190.351,141.245 186.072,155.369 180.782,165.654C175.493,175.938 168.763,181.08 160.592,181.08C156.206,181.08 152.636,179.713 149.884,176.979C147.132,174.245 145.756,170.665 145.756,166.239C145.756,160.078 148.164,153.46 152.98,146.387C157.797,139.314 166.828,130.614 180.073,120.286L180.847,115.209C179.385,117.552 177.471,119.353 175.106,120.612C172.741,121.87 170.397,122.499 168.075,122.499C162.742,122.499 158.485,120.547 155.303,116.641C154.643,115.832 154.052,114.97 153.529,114.056C152.046,115.458 150.53,116.754 148.981,117.943C145.025,120.981 141.197,122.499 137.499,122.499C134.661,122.499 132.059,121.523 129.694,119.57C127.329,117.618 125.544,114.949 124.34,111.564C119.868,118.854 114.234,122.499 107.44,122.499C102.107,122.499 97.85,120.547 94.667,116.641C91.485,112.736 89.894,107.615 89.894,101.28C89.894,94.337 91.485,87.763 94.667,81.558C97.85,75.353 102.086,70.363 107.375,66.587C112.664,62.812 118.276,60.925 124.211,60.925C126.103,60.925 127.372,61.294 128.017,62.031C128.662,62.769 129.199,64.092 129.629,66.002C131.436,65.655 133.328,65.481 135.306,65.481C139.52,65.481 141.627,67 141.627,70.037C141.627,71.86 140.982,76.199 139.692,83.055C137.714,93.035 136.725,99.978 136.725,103.884C136.725,105.185 137.048,106.227 137.693,107.008C138.338,107.789 139.176,108.18 140.208,108.18C141.842,108.18 143.821,107.116 146.143,104.99C147.377,103.861 148.841,102.357 150.537,100.48ZM162.011,168.452C164.161,168.452 166.591,165.849 169.3,160.642C172.01,155.435 174.611,147.146 177.106,135.778C170.483,141.505 165.71,146.669 162.785,151.269C159.861,155.868 158.399,159.904 158.399,163.375C158.399,164.851 158.678,166.066 159.237,167.02C159.797,167.975 160.721,168.452 162.011,168.452ZM98.667,44.262C98.667,51.639 96.775,58.408 92.99,64.57C89.206,70.731 83.701,75.765 76.477,79.67C69.252,83.576 60.651,85.876 50.675,86.57L45.127,117.943C42.977,130.006 37.128,136.038 27.582,136.038C22.335,136.038 17.497,134.476 13.068,131.351C8.639,128.227 5.091,123.454 2.424,117.032C-0.242,110.61 -1.575,102.712 -1.575,93.339C-1.575,75.722 1.242,60.773 6.875,48.493C12.509,36.212 20.077,27.013 29.581,20.895C39.085,14.776 49.557,11.717 60.996,11.717C69.08,11.717 75.939,13.149 81.573,16.013C87.206,18.877 91.464,22.761 94.345,27.664C97.226,32.567 98.667,38.1 98.667,44.262ZM52.997,73.161C70.628,70.905 79.444,61.662 79.444,45.433C79.444,39.706 77.573,35.041 73.832,31.439C70.091,27.838 64.307,26.037 56.48,26.037C47.621,26.037 39.902,28.857 33.323,34.498C26.743,40.139 21.669,47.972 18.099,57.996C14.53,68.019 12.745,79.453 12.745,92.298C12.745,97.678 13.283,102.452 14.358,106.617C15.433,110.783 16.809,114.016 18.486,116.316C20.163,118.616 21.776,119.766 23.324,119.766C25.474,119.766 27.109,116.771 28.227,110.783L32.484,86.179C29.13,85.659 27.668,85.442 28.098,85.528C25.517,85.095 23.84,84.292 23.066,83.12C22.292,81.949 21.905,80.451 21.905,78.629C21.905,76.72 22.443,75.201 23.518,74.073C24.593,72.945 26.077,72.38 27.969,72.38C28.829,72.38 29.474,72.424 29.904,72.511C31.968,72.858 33.559,73.075 34.677,73.161C35.795,66.392 37.386,57.323 39.451,45.954C39.967,43.003 41.149,40.899 42.998,39.64C44.848,38.382 47.019,37.753 49.514,37.753C52.352,37.753 54.394,38.295 55.642,39.38C56.889,40.465 57.512,42.179 57.512,44.522C57.512,45.911 57.426,47.039 57.254,47.907L52.997,73.161ZM112.084,109.351C113.976,109.351 115.782,108.223 117.502,105.967C119.223,103.71 120.47,100.716 121.244,96.984L126.017,73.031C122.405,73.118 119.072,74.485 116.019,77.132C112.965,79.779 110.536,83.272 108.73,87.611C106.923,91.951 106.02,96.55 106.02,101.41C106.02,104.101 106.558,106.097 107.633,107.399C108.708,108.7 110.192,109.351 112.084,109.351ZM172.719,109.351C174.697,109.351 176.589,108.136 178.396,105.706C180.202,103.276 181.492,99.805 182.266,95.292L186.394,73.031C182.868,73.118 179.6,74.485 176.589,77.132C173.579,79.779 171.171,83.272 169.365,87.611C167.559,91.951 166.656,96.55 166.656,101.41C166.656,104.101 167.193,106.097 168.268,107.399C169.343,108.7 170.827,109.351 172.719,109.351ZM239.031,73.943C235.849,73.943 233.161,75.808 230.968,79.54C228.774,83.272 227.678,87.785 227.678,93.079L227.678,93.339C232.752,92.124 236.752,90.302 239.676,87.872C242.6,85.442 244.062,82.621 244.062,79.41C244.062,77.761 243.611,76.438 242.708,75.44C241.805,74.442 240.579,73.943 239.031,73.943Z" style="fill:rgb(43,43,43);fill-rule:nonzero;"/>
        </g>
        <g transform="matrix(1.00734,0,0,0.998304,52.5595,13.2746)">
            <path d="M440.436,61.185C442.414,61.185 443.79,61.445 444.564,61.966C445.338,62.487 445.725,63.355 445.725,64.57C445.725,66.653 444.607,74.073 442.371,86.83C440.393,99.067 439.232,106.314 438.888,108.57C435.706,130.874 431.319,148.535 425.729,161.553C420.138,174.571 412.699,181.08 403.41,181.08C399.023,181.08 395.454,179.713 392.702,176.979C389.95,174.245 388.573,170.665 388.573,166.239C388.573,162.16 389.498,157.995 391.347,153.742C393.196,149.49 396.637,144.608 401.668,139.097C406.7,133.586 413.817,127.272 423.019,120.156L423.406,117.162C424.009,113.951 424.697,109.351 425.471,103.363C423.75,109.612 421.342,114.363 418.246,117.618C415.15,120.872 411.881,122.499 408.441,122.499C404.571,122.499 401.41,120.698 398.959,117.097C396.508,113.495 395.282,109.004 395.282,103.623C395.282,97.114 389.343,96.016 390.203,90.592C391.063,85.168 398.508,96.724 398.508,98.807C398.508,102.105 403.948,110.587 409.42,110.667C413.802,110.731 418.515,98.52 420.105,95.019C421.448,92.06 428.825,76.199 430.889,68.475C431.577,65.871 432.631,64.006 434.05,62.877C435.469,61.749 437.598,61.185 440.436,61.185ZM404.829,168.452C406.979,168.452 409.387,165.936 412.053,160.902C414.72,155.868 417.386,147.494 420.052,135.778C413.43,141.419 408.635,146.561 405.667,151.204C402.7,155.847 401.217,159.904 401.217,163.375C401.217,164.851 401.496,166.066 402.055,167.02C402.614,167.975 403.539,168.452 404.829,168.452ZM601.233,97.595C601.883,84.836 603.566,71.94 606.28,58.907C609.849,41.767 614.751,27.577 620.987,16.338C627.223,5.1 634.082,-0.52 641.564,-0.52C645.607,-0.52 648.767,1.303 651.047,4.948C653.326,8.593 654.465,13.496 654.465,19.658C654.465,40.053 642.381,62.27 618.213,86.31C617.353,94.815 616.923,102.278 616.923,108.7C616.923,117.639 617.224,126.817 617.826,136.233C618.428,145.649 619.417,150.358 620.793,150.358C623.374,150.358 624.664,145.845 624.664,136.819C624.664,130.05 624.212,123.497 623.309,117.162C622.406,110.827 621.18,104.144 619.632,97.114C619.546,95.986 619.912,94.554 620.729,92.818C621.546,91.083 622.557,89.564 623.761,88.262C624.965,86.96 626.04,86.31 626.986,86.31C628.706,86.31 630.77,86.396 633.179,86.57C633.953,86.657 634.856,86.7 635.888,86.7C639.328,86.7 643.155,86.396 647.37,85.789C648.058,85.702 648.789,85.615 649.563,85.528C650.337,85.442 651.111,85.398 651.885,85.398C654.293,85.398 655.497,87.221 655.497,90.866C655.497,97.722 650.165,101.15 639.5,101.15C637.436,101.15 634.469,100.759 630.598,99.978C631.716,105.359 632.641,111.326 633.372,117.878C634.103,124.43 634.469,129.833 634.469,134.085C634.469,143.458 632.964,150.618 629.953,155.565C626.943,160.511 622.987,162.985 618.084,162.985C611.892,162.985 607.484,158.559 604.861,149.707C602.483,141.685 601.183,129.957 600.96,114.523C599.465,115.816 597.927,116.999 596.346,118.073C592.002,121.024 587.079,122.499 581.574,122.499C574.005,122.499 568.393,119.028 564.738,112.085C564.338,111.325 563.96,110.54 563.603,109.731C560.744,112.505 557.166,115.112 552.869,117.552C547.064,120.85 540.85,122.499 534.227,122.499C525.196,122.499 518.187,120.026 513.198,115.079C512.299,114.187 511.48,113.236 510.743,112.225C508.199,114.71 505.727,116.551 503.329,117.748C499.416,119.7 494.578,120.764 488.815,120.937C485.375,123.888 481.289,125.363 476.559,125.363C472.087,125.363 468.668,124.322 466.303,122.239C463.937,120.156 462.755,117.813 462.755,115.209C462.755,112.953 463.572,111 465.206,109.351C466.84,107.702 469.248,106.878 472.431,106.878C473.549,106.878 474.86,106.986 476.366,107.203C477.871,107.42 479.01,107.572 479.784,107.659C479.698,105.402 479.204,103.276 478.301,101.28C477.398,99.284 476.258,97.353 474.882,95.487C473.506,93.621 472.216,91.994 471.012,90.605C468.345,95.726 465.701,99.978 463.077,103.363C460.454,106.748 457.594,109.959 454.498,112.996C452.95,114.558 451.316,115.339 449.596,115.339C448.22,115.339 447.101,114.84 446.241,113.842C445.381,112.844 444.951,111.608 444.951,110.132C444.951,108.397 445.553,106.791 446.757,105.316L448.435,103.233C453.165,97.331 456.734,92.471 459.143,88.653C460.605,86.136 462.325,82.773 464.303,78.564C466.281,74.355 468.216,69.994 470.108,65.481C471.743,61.662 475.14,59.753 480.3,59.753C482.709,59.753 484.386,59.97 485.332,60.404C486.278,60.838 486.751,61.532 486.751,62.487C486.751,63.008 486.579,63.832 486.235,64.96C485.891,66.088 485.418,67.217 484.816,68.345C483.268,71.469 482.494,74.116 482.494,76.286C482.494,77.588 482.945,79.02 483.848,80.582C484.751,82.144 486.149,84.097 488.041,86.44C490.793,90.085 492.879,93.187 494.298,95.748C495.717,98.308 496.427,101.107 496.427,104.144C496.427,105.012 496.341,106.227 496.169,107.789C499.12,106.634 502.429,104.14 506.096,100.305C505.842,98.553 505.716,96.709 505.716,94.771C505.716,88.783 506.963,83.207 509.457,78.043C511.951,72.879 515.413,68.779 519.842,65.741C524.272,62.704 529.282,61.185 534.872,61.185C539.86,61.185 543.86,62.682 546.87,65.676C549.88,68.67 551.385,72.728 551.385,77.848C551.385,83.836 549.257,88.978 544.999,93.274C540.742,97.57 533.539,100.976 523.39,103.493C525.54,107.485 529.626,109.481 535.646,109.481C539.516,109.481 543.924,108.115 548.87,105.381C553.064,103.062 556.78,100.134 560.015,96.598C559.508,93.06 559.255,89.24 559.255,85.138C559.255,74.55 560.61,62.487 563.319,48.948C566.028,35.41 570.028,23.78 575.317,14.06C580.606,4.34 586.907,-0.52 594.217,-0.52C598.346,-0.52 601.592,1.411 603.958,5.273C606.323,9.135 607.505,14.668 607.505,21.871C607.505,32.199 604.667,44.175 598.991,57.8C593.314,71.426 585.616,84.921 575.898,98.286C576.5,101.844 577.489,104.383 578.865,105.901C580.241,107.42 582.047,108.18 584.283,108.18C587.81,108.18 590.906,107.16 593.572,105.12C595.672,103.514 598.226,101.005 601.233,97.595ZM532.679,73.943C529.497,73.943 526.809,75.808 524.616,79.54C522.422,83.272 521.326,87.785 521.326,93.079L521.326,93.339C526.4,92.124 530.4,90.302 533.324,87.872C536.248,85.442 537.71,82.621 537.71,79.41C537.71,77.761 537.259,76.438 536.356,75.44C535.453,74.442 534.227,73.943 532.679,73.943ZM591.379,12.368C589.401,12.368 587.165,15.97 584.67,23.173C582.176,30.376 579.983,39.315 578.091,49.99C576.199,60.664 575.167,70.905 574.995,80.712C581.101,70.558 585.96,60.382 589.573,50.185C593.185,39.988 594.991,30.68 594.991,22.262C594.991,15.666 593.787,12.368 591.379,12.368ZM638.855,12.368C637.307,12.368 635.393,15.015 633.114,20.309C630.835,25.603 628.577,32.611 626.341,41.333C624.105,50.055 622.17,59.276 620.535,68.996C627.416,61.098 632.705,52.875 636.404,44.327C640.102,35.778 641.994,27.772 642.08,20.309C642.08,15.015 641.005,12.368 638.855,12.368Z" style="fill:rgb(43,43,43);fill-rule:nonzero;"/>
        </g>
        <g transform="matrix(1.03456,0,0,1.02528,47.1946,12.7904)">
            <path d="M357.32,29.199C356.821,27.531 359.421,24.758 363.272,22.904C367.101,21.061 370.789,20.834 371.69,22.306C371.676,22.25 371.658,22.195 371.637,22.142L371.648,22.131L395.978,78.169C395.978,78.201 395.976,78.232 395.974,78.264L396.059,78.576L396.597,92.565C396.651,92.458 396.697,92.348 396.734,92.235L397.016,100.676L396.904,100.565L396.906,100.605L394.674,98.36L391.08,94.808C391.113,94.823 391.147,94.836 391.182,94.849L381.891,85.505C381.624,85.338 381.427,85.124 381.313,84.861C381.182,84.566 380.608,83.254 380.608,83.254L357.255,29.078C357.274,29.119 357.296,29.16 357.32,29.199Z" style="fill:rgb(43,43,43);fill-rule:nonzero;"/>
        </g>
        <g transform="matrix(-1.03456,0,0,1.02528,798.453,12.7904)">
            <path d="M357.32,29.199C356.821,27.531 359.421,24.758 363.272,22.904C367.101,21.061 370.789,20.834 371.69,22.306C371.676,22.25 371.658,22.195 371.637,22.142L371.648,22.131L395.978,78.169C395.978,78.201 395.976,78.232 395.974,78.264L396.059,78.576L396.597,92.565C396.651,92.458 396.697,92.348 396.734,92.235L397.016,100.676L396.904,100.565L396.906,100.605L394.674,98.36L391.08,94.808C391.113,94.823 391.147,94.836 391.182,94.849L381.891,85.505C381.624,85.338 381.427,85.124 381.313,84.861C381.182,84.566 380.608,83.254 380.608,83.254L357.255,29.078C357.274,29.119 357.296,29.16 357.32,29.199Z" style="fill:rgb(43,43,43);fill-rule:nonzero;"/>
        </g>
        <g transform="matrix(1.03456,0,0,1.02528,-20.4424,12.7904)">
            <path d="M357.32,29.199C356.821,27.531 359.421,24.758 363.272,22.904C367.101,21.061 370.789,20.834 371.69,22.306C371.676,22.25 371.658,22.195 371.637,22.142L371.648,22.131L395.978,78.169C395.978,78.201 395.976,78.232 395.974,78.264L396.059,78.576L396.597,92.565C396.651,92.458 396.697,92.348 396.734,92.235L397.016,100.676L396.904,100.565L396.906,100.605L394.674,98.36L391.08,94.808C391.113,94.823 391.147,94.836 391.182,94.849L381.891,85.505C381.624,85.338 381.427,85.124 381.313,84.861C381.182,84.566 380.608,83.254 380.608,83.254L357.255,29.078C357.274,29.119 357.296,29.16 357.32,29.199Z" style="fill:rgb(43,43,43);fill-rule:nonzero;"/>
        </g>
        <g transform="matrix(-1.03456,0,0,1.02528,730.816,12.7904)">
            <path d="M357.32,29.199C356.821,27.531 359.421,24.758 363.272,22.904C367.101,21.061 370.789,20.834 371.69,22.306C371.676,22.25 371.658,22.195 371.637,22.142L371.648,22.131L395.978,78.169C395.978,78.201 395.976,78.232 395.974,78.264L396.059,78.576L396.597,92.565C396.651,92.458 396.697,92.348 396.734,92.235L397.016,100.676L396.904,100.565L396.906,100.605L394.674,98.36L391.08,94.808C391.113,94.823 391.147,94.836 391.182,94.849L381.891,85.505C381.624,85.338 381.427,85.124 381.313,84.861C381.182,84.566 380.608,83.254 380.608,83.254L357.255,29.078C357.274,29.119 357.296,29.16 357.32,29.199Z" style="fill:rgb(43,43,43);fill-rule:nonzero;"/>
        </g>
    </g>
    <g transform="matrix(1,0,0,1,-55.1556,-11.2229)">
        <g transform="matrix(1,0,0,1,6.40478,44.3059)">
            <path d="M154.907,13.247C154.907,20.5 153.029,27.156 149.275,33.215C145.52,39.274 140.059,44.223 132.891,48.063C125.723,51.903 117.189,54.164 107.291,54.847L101.787,85.695C99.653,97.556 93.851,103.487 84.379,103.487C79.173,103.487 74.373,101.951 69.979,98.879C65.584,95.807 62.064,91.114 59.419,84.799C56.773,78.484 55.451,70.719 55.451,61.503C55.451,44.18 58.245,29.482 63.835,17.407C69.424,5.332 76.933,-3.713 86.363,-9.729C95.792,-15.745 106.181,-18.753 117.531,-18.753C125.552,-18.753 132.357,-17.345 137.947,-14.529C143.536,-11.713 147.76,-7.894 150.619,-3.073C153.477,1.748 154.907,7.188 154.907,13.247ZM109.595,41.663C127.088,39.444 135.835,30.356 135.835,14.399C135.835,8.767 133.979,4.18 130.267,0.639C126.555,-2.902 120.816,-4.673 113.051,-4.673C104.261,-4.673 96.603,-1.9 90.075,3.647C83.547,9.194 78.512,16.895 74.971,26.751C71.429,36.607 69.659,47.85 69.659,60.479C69.659,65.77 70.192,70.463 71.259,74.559C72.325,78.655 73.691,81.834 75.355,84.095C77.019,86.356 78.619,87.487 80.155,87.487C82.288,87.487 83.909,84.543 85.019,78.655L89.243,54.463C85.915,53.951 84.464,53.738 84.891,53.823C82.331,53.396 80.667,52.607 79.899,51.455C79.131,50.303 78.747,48.831 78.747,47.039C78.747,45.162 79.28,43.668 80.347,42.559C81.413,41.45 82.885,40.895 84.763,40.895C85.616,40.895 86.256,40.938 86.683,41.023C88.731,41.364 90.309,41.578 91.419,41.663C92.528,35.007 94.107,26.09 96.155,14.911C96.667,12.01 97.84,9.94 99.675,8.703C101.509,7.466 103.664,6.847 106.139,6.847C108.955,6.847 110.981,7.38 112.219,8.447C113.456,9.514 114.075,11.199 114.075,13.503C114.075,14.868 113.989,15.978 113.819,16.831L109.595,41.663Z" style="fill:white;fill-rule:nonzero;"/>
            <path d="M163.611,90.175C158.32,90.175 154.096,88.255 150.939,84.415C147.781,80.575 146.203,75.54 146.203,69.311C146.203,62.484 147.781,56.02 150.939,49.919C154.096,43.818 158.299,38.911 163.547,35.199C168.795,31.487 174.363,29.631 180.251,29.631C182.128,29.631 183.387,29.994 184.027,30.719C184.667,31.444 185.2,32.746 185.627,34.623C187.419,34.282 189.296,34.111 191.259,34.111C195.44,34.111 197.531,35.604 197.531,38.591C197.531,40.383 196.891,44.65 195.611,51.391C193.648,61.204 192.667,68.031 192.667,71.871C192.667,73.151 192.987,74.175 193.627,74.943C194.267,75.711 195.099,76.095 196.123,76.095C197.744,76.095 199.707,75.05 202.011,72.959C204.315,70.868 207.429,67.476 211.355,62.783C212.379,61.588 213.531,60.991 214.811,60.991C215.92,60.991 216.795,61.503 217.435,62.527C218.075,63.551 218.395,64.959 218.395,66.751C218.395,70.164 217.584,72.81 215.963,74.687C212.464,79.039 208.752,82.708 204.827,85.695C200.901,88.682 197.104,90.175 193.435,90.175C190.619,90.175 188.037,89.215 185.691,87.295C183.344,85.375 181.573,82.751 180.379,79.423C175.941,86.591 170.352,90.175 163.611,90.175ZM168.219,77.247C170.096,77.247 171.888,76.138 173.595,73.919C175.301,71.7 176.539,68.756 177.307,65.087L182.043,41.535C178.459,41.62 175.152,42.964 172.123,45.567C169.093,48.17 166.683,51.604 164.891,55.871C163.099,60.138 162.203,64.66 162.203,69.439C162.203,72.084 162.736,74.047 163.803,75.327C164.869,76.607 166.341,77.247 168.219,77.247Z" style="fill:white;fill-rule:nonzero;"/>
            <path d="M273.563,61.247C274.672,61.247 275.547,61.78 276.187,62.847C276.827,63.914 277.147,65.258 277.147,66.879C277.147,68.842 276.848,70.378 276.251,71.487C275.653,72.596 274.715,73.578 273.435,74.431C266.096,79.38 260.72,83.05 257.307,85.439L249.115,90.943C245.872,108.607 241.627,122.495 236.379,132.607C231.131,142.719 224.453,147.775 216.347,147.775C211.995,147.775 208.453,146.431 205.723,143.743C202.992,141.055 201.627,137.535 201.627,133.183C201.627,127.124 204.016,120.618 208.795,113.663C213.573,106.708 222.533,98.154 235.675,87.999L236.443,83.007C234.992,85.311 233.093,87.082 230.747,88.319C228.4,89.556 226.075,90.175 223.771,90.175C218.48,90.175 214.256,88.255 211.099,84.415C207.941,80.575 206.363,75.54 206.363,69.311C206.363,62.484 207.941,56.02 211.099,49.919C214.256,43.818 218.459,38.911 223.707,35.199C228.955,31.487 234.523,29.631 240.411,29.631C242.288,29.631 243.547,29.994 244.187,30.719C244.827,31.444 245.36,32.746 245.787,34.623C247.408,34.282 249.285,34.111 251.419,34.111C253.552,34.111 255.067,34.431 255.963,35.071C256.859,35.711 257.307,36.97 257.307,38.847C257.307,39.871 257.264,40.682 257.179,41.279C256.837,43.924 255.771,50.623 253.979,61.375C253.637,63.423 253.275,65.663 252.891,68.095C252.507,70.527 252.101,73.108 251.675,75.839C258.245,70.719 264.56,66.196 270.619,62.271C271.728,61.588 272.709,61.247 273.563,61.247ZM228.379,77.247C230.341,77.247 232.219,76.052 234.011,73.663C235.803,71.274 237.083,67.86 237.851,63.423L241.947,41.535C238.448,41.62 235.205,42.964 232.219,45.567C229.232,48.17 226.843,51.604 225.051,55.871C223.259,60.138 222.363,64.66 222.363,69.439C222.363,72.084 222.896,74.047 223.963,75.327C225.029,76.607 226.501,77.247 228.379,77.247ZM217.755,135.359C219.888,135.359 222.299,132.799 224.987,127.679C227.675,122.559 230.256,114.41 232.731,103.231C226.16,108.863 221.424,113.94 218.523,118.463C215.621,122.986 214.171,126.954 214.171,130.367C214.171,131.818 214.448,133.012 215.003,133.951C215.557,134.89 216.475,135.359 217.755,135.359Z" style="fill:white;fill-rule:nonzero;"/>
            <path d="M315.163,64.831C316.272,64.831 315.97,71.767 314.63,75.857C313.673,78.776 311.045,85.055 307.163,87.103C303.28,89.151 298.651,90.175 293.275,90.175C285.083,90.175 278.725,87.722 274.203,82.815C269.68,77.908 267.419,71.274 267.419,62.911C267.419,57.023 268.656,51.54 271.131,46.463C273.605,41.386 277.04,37.354 281.435,34.367C285.829,31.38 290.8,29.887 296.347,29.887C301.296,29.887 305.264,31.359 308.251,34.303C311.237,37.247 312.731,41.236 312.731,46.271C312.731,52.159 310.619,57.215 306.395,61.439C302.171,65.663 294.981,69.012 284.827,71.487C286.875,75.412 290.331,77.375 295.195,77.375C298.693,77.375 301.573,76.564 303.835,74.943C306.096,73.322 311.018,68.772 314.005,64.932C315.029,63.652 313.883,64.831 315.163,64.831ZM294.171,42.431C291.013,42.431 288.347,44.266 286.171,47.935C283.995,51.604 282.907,56.042 282.907,61.247L282.907,61.503C287.941,60.308 291.909,58.516 294.811,56.127C297.712,53.738 299.163,50.964 299.163,47.807C299.163,46.186 298.715,44.884 297.819,43.903C296.923,42.922 295.707,42.431 294.171,42.431Z" style="fill:white;fill-rule:nonzero;"/>
        </g>
        <g transform="matrix(1,0,0,1,399.895,44.3059)">
            <path d="M100.507,29.887C102.469,29.887 103.835,30.143 104.603,30.655C105.371,31.167 105.755,32.02 105.755,33.215C105.755,35.263 104.645,42.559 102.427,55.103C100.464,67.135 99.312,74.26 98.971,76.479C95.813,98.41 91.461,115.775 85.915,128.575C80.368,141.375 72.987,147.775 63.771,147.775C59.419,147.775 55.877,146.431 53.147,143.743C50.416,141.055 49.051,137.535 49.051,133.183C49.051,129.172 49.968,125.076 51.803,120.895C53.637,116.714 57.051,111.914 62.043,106.495C67.035,101.076 74.096,94.868 83.227,87.871L83.611,84.927C84.208,81.77 84.891,77.247 85.659,71.359C83.952,77.503 81.563,82.175 78.491,85.375C75.419,88.575 72.176,90.175 68.763,90.175C64.923,90.175 61.787,88.404 59.355,84.863C56.923,81.322 55.707,76.906 55.707,71.615C55.707,65.215 49.814,64.135 50.668,58.802C51.521,53.469 58.907,64.831 58.907,66.879C58.907,70.122 64.305,78.462 69.734,78.541C74.081,78.604 78.758,66.597 80.335,63.155C81.667,60.245 88.987,44.65 91.035,37.055C91.717,34.495 92.763,32.66 94.171,31.551C95.579,30.442 97.691,29.887 100.507,29.887ZM65.179,135.359C67.312,135.359 69.701,132.884 72.347,127.935C74.992,122.986 77.637,114.751 80.283,103.231C73.712,108.778 68.955,113.834 66.011,118.399C63.067,122.964 61.595,126.954 61.595,130.367C61.595,131.818 61.872,133.012 62.427,133.951C62.981,134.89 63.899,135.359 65.179,135.359Z" style="fill:white;fill-rule:nonzero;"/>
            <path d="M136.347,92.991C131.909,92.991 128.517,91.967 126.171,89.919C123.824,87.871 122.651,85.567 122.651,83.007C122.651,80.788 123.461,78.868 125.083,77.247C126.704,75.626 129.093,74.815 132.251,74.815C133.36,74.815 134.661,74.922 136.155,75.135C137.648,75.348 138.779,75.498 139.547,75.583C139.461,73.364 138.971,71.274 138.075,69.311C137.179,67.348 136.048,65.45 134.683,63.615C133.317,61.78 132.037,60.18 130.843,58.815C128.197,63.85 125.573,68.031 122.971,71.359C120.368,74.687 117.531,77.844 114.459,80.831C112.923,82.367 111.301,83.135 109.595,83.135C108.229,83.135 107.12,82.644 106.267,81.663C105.413,80.682 104.987,79.466 104.987,78.015C104.987,76.308 105.584,74.73 106.779,73.279L108.443,71.231C113.136,65.428 116.677,60.65 119.067,56.895C120.517,54.42 122.224,51.114 124.187,46.975C126.149,42.836 128.069,38.548 129.947,34.111C131.568,30.356 134.939,28.479 140.059,28.479C142.448,28.479 144.112,28.692 145.051,29.119C145.989,29.546 146.459,30.228 146.459,31.167C146.459,31.679 146.288,32.49 145.947,33.599C145.605,34.708 145.136,35.818 144.539,36.927C143.003,39.999 142.235,42.602 142.235,44.735C142.235,46.015 142.683,47.423 143.579,48.959C144.475,50.495 145.861,52.415 147.739,54.719C150.469,58.303 152.539,61.354 153.947,63.871C155.355,66.388 156.059,69.14 156.059,72.127C156.059,72.98 155.973,74.175 155.803,75.711C159.984,74.09 164.891,69.78 170.523,62.783C171.547,61.588 172.699,60.991 173.979,60.991C175.088,60.991 175.963,61.503 176.603,62.527C177.243,63.551 177.563,64.959 177.563,66.751C177.563,69.994 176.752,72.639 175.131,74.687C170.864,79.978 166.789,83.583 162.907,85.503C159.024,87.423 154.224,88.468 148.507,88.639C145.093,91.54 141.04,92.991 136.347,92.991Z" style="fill:white;fill-rule:nonzero;"/>
            <path d="M224.283,60.991C225.392,60.991 226.267,61.503 226.907,62.527C227.547,63.551 227.867,64.959 227.867,66.751C227.867,70.164 227.056,72.81 225.435,74.687C222.277,78.527 217.819,82.068 212.059,85.311C206.299,88.554 200.133,90.175 193.563,90.175C184.603,90.175 177.648,87.743 172.699,82.879C167.749,78.015 165.275,71.359 165.275,62.911C165.275,57.023 166.512,51.54 168.987,46.463C171.461,41.386 174.896,37.354 179.291,34.367C183.685,31.38 188.656,29.887 194.203,29.887C199.152,29.887 203.12,31.359 206.107,34.303C209.093,37.247 210.587,41.236 210.587,46.271C210.587,52.159 208.475,57.215 204.251,61.439C200.027,65.663 192.88,69.012 182.811,71.487C184.944,75.412 188.997,77.375 194.971,77.375C198.811,77.375 203.184,76.031 208.091,73.343C212.997,70.655 217.243,67.135 220.827,62.783C221.851,61.588 223.003,60.991 224.283,60.991ZM192.027,42.431C188.869,42.431 186.203,44.266 184.027,47.935C181.851,51.604 180.763,56.042 180.763,61.247L180.763,61.503C185.797,60.308 189.765,58.516 192.667,56.127C195.568,53.738 197.019,50.964 197.019,47.807C197.019,46.186 196.571,44.884 195.675,43.903C194.779,42.922 193.563,42.431 192.027,42.431Z" style="fill:white;fill-rule:nonzero;"/>
            <path d="M266.011,60.991C267.12,60.991 267.995,61.503 268.635,62.527C269.275,63.551 269.595,64.959 269.595,66.751C269.595,70.164 268.784,72.81 267.163,74.687C263.493,79.21 259.504,82.922 255.195,85.823C250.885,88.724 246,90.175 240.539,90.175C233.029,90.175 227.461,86.762 223.835,79.935C220.208,73.108 218.395,64.276 218.395,53.439C218.395,43.028 219.739,31.167 222.427,17.855C225.115,4.543 229.083,-6.892 234.331,-16.449C239.579,-26.006 245.829,-30.785 253.083,-30.785C257.179,-30.785 260.4,-28.886 262.747,-25.089C265.093,-21.292 266.267,-15.852 266.267,-8.769C266.267,1.386 263.451,13.162 257.819,26.559C252.187,39.956 244.549,53.226 234.907,66.367C235.504,69.866 236.485,72.362 237.851,73.855C239.216,75.348 241.008,76.095 243.227,76.095C246.725,76.095 249.797,75.092 252.443,73.087C255.088,71.082 258.459,67.647 262.555,62.783C263.579,61.588 264.731,60.991 266.011,60.991ZM250.267,-18.113C248.304,-18.113 246.085,-14.572 243.611,-7.489C241.136,-0.406 238.96,8.383 237.083,18.879C235.205,29.375 234.181,39.444 234.011,49.087C240.069,39.103 244.891,29.098 248.475,19.071C252.059,9.044 253.851,-0.108 253.851,-8.385C253.851,-14.87 252.656,-18.113 250.267,-18.113Z" style="fill:white;fill-rule:nonzero;"/>
            <path d="M310.299,53.695C312.688,53.695 313.883,55.487 313.883,59.071C313.883,65.812 308.592,69.183 298.011,69.183C295.963,69.183 293.019,68.799 289.179,68.031C290.288,73.322 291.205,79.188 291.931,85.631C292.656,92.074 293.019,97.386 293.019,101.567C293.019,110.783 291.525,117.823 288.539,122.687C285.552,127.551 281.627,129.983 276.763,129.983C270.619,129.983 266.245,125.631 263.643,116.927C261.04,108.223 259.739,95.082 259.739,77.503C259.739,61.119 261.509,44.5 265.051,27.647C268.592,10.794 273.456,-3.158 279.643,-14.209C285.829,-25.26 292.635,-30.785 300.059,-30.785C304.069,-30.785 307.205,-28.993 309.467,-25.409C311.728,-21.825 312.859,-17.004 312.859,-10.945C312.859,9.108 300.869,30.954 276.891,54.591C276.037,62.954 275.611,70.292 275.611,76.607C275.611,85.396 275.909,94.42 276.507,103.679C277.104,112.938 278.085,117.567 279.451,117.567C282.011,117.567 283.291,113.13 283.291,104.255C283.291,97.599 282.843,91.156 281.947,84.927C281.051,78.698 279.835,72.127 278.299,65.215C278.213,64.106 278.576,62.698 279.387,60.991C280.197,59.284 281.2,57.791 282.395,56.511C283.589,55.231 284.656,54.591 285.595,54.591C287.301,54.591 289.349,54.676 291.739,54.847C292.507,54.932 293.403,54.975 294.427,54.975C297.84,54.975 301.637,54.676 305.819,54.079C306.501,53.994 307.227,53.908 307.995,53.823C308.763,53.738 309.531,53.695 310.299,53.695ZM297.371,-18.113C295.835,-18.113 293.936,-15.51 291.675,-10.305C289.413,-5.1 287.173,1.791 284.955,10.367C282.736,18.943 280.816,28.01 279.195,37.567C286.021,29.802 291.269,21.716 294.939,13.311C298.608,4.906 300.485,-2.966 300.571,-10.305C300.571,-15.51 299.504,-18.113 297.371,-18.113Z" style="fill:white;fill-rule:nonzero;"/>
        </g>
        <g transform="matrix(1,0,0,1,-26.2334,33.8928)">
            <g transform="matrix(1,0,0,1,405.664,0)">
                <path d="M10.67,57.4L9.83,79.06L24.88,64.06L24.77,64.06C24.883,63.986 24.985,63.895 25.07,63.79L25.15,63.79L49.05,9C49.76,7.38 47.14,4.54 43.2,2.66C39.26,0.78 35.47,0.61 34.76,2.24L10.78,57L10.67,57.4Z" style="fill:white;fill-rule:nonzero;"/>
            </g>
            <g transform="matrix(1,0,0,1,405.664,0)">
                <path d="M34.9,1.91C34.41,3.16 35.81,5.09 38.24,6.75L14.18,61.67C12,60.22 10.78,58.25 10.75,57L34.89,1.9L34.9,1.91Z" style="fill:white;fill-rule:nonzero;"/>
            </g>
            <g transform="matrix(1,0,0,1,405.664,0)">
                <path d="M25.3,63.58C24.76,64.82 22.3,64.95 19.56,64.18L43.61,9.28C46.34,10.05 48.61,9.91 49.17,8.73L26,62C26,62 25.43,63.29 25.3,63.58Z" style="fill:white;fill-rule:nonzero;"/>
            </g>
            <g transform="matrix(1,0,0,1,405.664,0)">
                <path d="M16.64,63.07C15.785,62.669 14.962,62.201 14.18,61.67L38.24,6.75C39.04,7.299 39.883,7.784 40.76,8.2C41.68,8.635 42.633,8.996 43.61,9.28L19.61,64.18C18.589,63.9 17.595,63.528 16.64,63.07Z" style="fill:white;fill-rule:nonzero;"/>
            </g>
            <g transform="matrix(1,0,0,1,405.664,0)">
                <path d="M44.68,6.94C44.17,7.4 42.56,7.1 41.09,6.28C39.62,5.46 38.83,4.41 39.34,4C39.85,3.59 41.45,3.84 42.93,4.67C44.41,5.5 45.19,6.49 44.68,6.94Z" style="fill:white;fill-rule:nonzero;stroke:black;stroke-opacity:0.08;stroke-width:2.21px;"/>
            </g>
            <g transform="matrix(1,0,0,1,405.664,0)">
                <path d="M10,70.83L9.72,79.13L15.61,73.36C14.15,74 10.67,72.83 10,70.83Z" style="fill:white;fill-rule:nonzero;"/>
            </g>
        </g>
        <g transform="matrix(1,0,0,1,-94.6893,33.8928)">
            <g transform="matrix(1,0,0,1,405.664,0)">
                <path d="M10.67,57.4L9.83,79.06L24.88,64.06L24.77,64.06C24.883,63.986 24.985,63.895 25.07,63.79L25.15,63.79L49.05,9C49.76,7.38 47.14,4.54 43.2,2.66C39.26,0.78 35.47,0.61 34.76,2.24L10.78,57L10.67,57.4Z" style="fill:white;fill-rule:nonzero;"/>
            </g>
            <g transform="matrix(1,0,0,1,405.664,0)">
                <path d="M34.9,1.91C34.41,3.16 35.81,5.09 38.24,6.75L14.18,61.67C12,60.22 10.78,58.25 10.75,57L34.89,1.9L34.9,1.91Z" style="fill:white;fill-rule:nonzero;"/>
            </g>
            <g transform="matrix(1,0,0,1,405.664,0)">
                <path d="M25.3,63.58C24.76,64.82 22.3,64.95 19.56,64.18L43.61,9.28C46.34,10.05 48.61,9.91 49.17,8.73L26,62C26,62 25.43,63.29 25.3,63.58Z" style="fill:white;fill-rule:nonzero;"/>
            </g>
            <g transform="matrix(1,0,0,1,405.664,0)">
                <path d="M16.64,63.07C15.785,62.669 14.962,62.201 14.18,61.67L38.24,6.75C39.04,7.299 39.883,7.784 40.76,8.2C41.68,8.635 42.633,8.996 43.61,9.28L19.61,64.18C18.589,63.9 17.595,63.528 16.64,63.07Z" style="fill:white;fill-rule:nonzero;"/>
            </g>
            <g transform="matrix(1,0,0,1,405.664,0)">
                <path d="M44.68,6.94C44.17,7.4 42.56,7.1 41.09,6.28C39.62,5.46 38.83,4.41 39.34,4C39.85,3.59 41.45,3.84 42.93,4.67C44.41,5.5 45.19,6.49 44.68,6.94Z" style="fill:white;fill-rule:nonzero;stroke:black;stroke-opacity:0.08;stroke-width:2.21px;"/>
            </g>
            <g transform="matrix(1,0,0,1,405.664,0)">
                <path d="M10,70.83L9.72,79.13L15.61,73.36C14.15,74 10.67,72.83 10,70.83Z" style="fill:white;fill-rule:nonzero;"/>
            </g>
        </g>
        <g transform="matrix(-1,0,0,1,804.538,33.8928)">
            <g transform="matrix(1,0,0,1,405.664,0)">
                <path d="M10.67,57.4L9.83,79.06L24.88,64.06L24.77,64.06C24.883,63.986 24.985,63.895 25.07,63.79L25.15,63.79L49.05,9C49.76,7.38 47.14,4.54 43.2,2.66C39.26,0.78 35.47,0.61 34.76,2.24L10.78,57L10.67,57.4Z" style="fill:white;fill-rule:nonzero;"/>
            </g>
            <g transform="matrix(1,0,0,1,405.664,0)">
                <path d="M34.9,1.91C34.41,3.16 35.81,5.09 38.24,6.75L14.18,61.67C12,60.22 10.78,58.25 10.75,57L34.89,1.9L34.9,1.91Z" style="fill:white;fill-rule:nonzero;"/>
            </g>
            <g transform="matrix(1,0,0,1,405.664,0)">
                <path d="M25.3,63.58C24.76,64.82 22.3,64.95 19.56,64.18L43.61,9.28C46.34,10.05 48.61,9.91 49.17,8.73L26,62C26,62 25.43,63.29 25.3,63.58Z" style="fill:white;fill-rule:nonzero;"/>
            </g>
            <g transform="matrix(1,0,0,1,405.664,0)">
                <path d="M16.64,63.07C15.785,62.669 14.962,62.201 14.18,61.67L38.24,6.75C39.04,7.299 39.883,7.784 40.76,8.2C41.68,8.635 42.633,8.996 43.61,9.28L19.61,64.18C18.589,63.9 17.595,63.528 16.64,63.07Z" style="fill:white;fill-rule:nonzero;"/>
            </g>
            <g transform="matrix(1,0,0,1,405.664,0)">
                <path d="M44.68,6.94C44.17,7.4 42.56,7.1 41.09,6.28C39.62,5.46 38.83,4.41 39.34,4C39.85,3.59 41.45,3.84 42.93,4.67C44.41,5.5 45.19,6.49 44.68,6.94Z" style="fill:white;fill-rule:nonzero;stroke:black;stroke-opacity:0.08;stroke-width:2.21px;"/>
            </g>
            <g transform="matrix(1,0,0,1,405.664,0)">
                <path d="M10,70.83L9.72,79.13L15.61,73.36C14.15,74 10.67,72.83 10,70.83Z" style="fill:white;fill-rule:nonzero;"/>
            </g>
        </g>
        <g transform="matrix(-1,0,0,1,872.706,33.8928)">
            <g transform="matrix(1,0,0,1,405.664,0)">
                <path d="M10.67,57.4L9.83,79.06L24.88,64.06L24.77,64.06C24.883,63.986 24.985,63.895 25.07,63.79L25.15,63.79L49.05,9C49.76,7.38 47.14,4.54 43.2,2.66C39.26,0.78 35.47,0.61 34.76,2.24L10.78,57L10.67,57.4Z" style="fill:white;fill-rule:nonzero;"/>
            </g>
            <g transform="matrix(1,0,0,1,405.664,0)">
                <path d="M34.9,1.91C34.41,3.16 35.81,5.09 38.24,6.75L14.18,61.67C12,60.22 10.78,58.25 10.75,57L34.89,1.9L34.9,1.91Z" style="fill:white;fill-rule:nonzero;"/>
            </g>
            <g transform="matrix(1,0,0,1,405.664,0)">
                <path d="M25.3,63.58C24.76,64.82 22.3,64.95 19.56,64.18L43.61,9.28C46.34,10.05 48.61,9.91 49.17,8.73L26,62C26,62 25.43,63.29 25.3,63.58Z" style="fill:white;fill-rule:nonzero;"/>
            </g>
            <g transform="matrix(1,0,0,1,405.664,0)">
                <path d="M16.64,63.07C15.785,62.669 14.962,62.201 14.18,61.67L38.24,6.75C39.04,7.299 39.883,7.784 40.76,8.2C41.68,8.635 42.633,8.996 43.61,9.28L19.61,64.18C18.589,63.9 17.595,63.528 16.64,63.07Z" style="fill:white;fill-rule:nonzero;"/>
            </g>
            <g transform="matrix(1,0,0,1,405.664,0)">
                <path d="M44.68,6.94C44.17,7.4 42.56,7.1 41.09,6.28C39.62,5.46 38.83,4.41 39.34,4C39.85,3.59 41.45,3.84 42.93,4.67C44.41,5.5 45.19,6.49 44.68,6.94Z" style="fill:white;fill-rule:nonzero;stroke:black;stroke-opacity:0.08;stroke-width:2.21px;"/>
            </g>
            <g transform="matrix(1,0,0,1,405.664,0)">
                <path d="M10,70.83L9.72,79.13L15.61,73.36C14.15,74 10.67,72.83 10,70.83Z" style="fill:white;fill-rule:nonzero;"/>
            </g>
        </g>
    </g>
</svg>
