<?xml version="1.0" encoding="UTF-8" standalone="no"?>
<!DOCTYPE svg PUBLIC "-//W3C//DTD SVG 1.1//EN" "http://www.w3.org/Graphics/SVG/1.1/DTD/svg11.dtd">
<svg width="100%" height="100%" viewBox="0 0 661 185" version="1.1" xmlns="http://www.w3.org/2000/svg" xmlns:xlink="http://www.w3.org/1999/xlink" xml:space="preserve" xmlns:serif="http://www.serif.com/" style="fill-rule:evenodd;clip-rule:evenodd;stroke-linejoin:round;">
    <g transform="matrix(1,0,0,1,-55.1556,-11.2229)">
        <g transform="matrix(1,0,0,1,6.40478,44.3059)">
            <path d="M154.907,13.247C154.907,20.5 153.029,27.156 149.275,33.215C145.52,39.274 140.059,44.223 132.891,48.063C125.723,51.903 117.189,54.164 107.291,54.847L101.787,85.695C99.653,97.556 93.851,103.487 84.379,103.487C79.173,103.487 74.373,101.951 69.979,98.879C65.584,95.807 62.064,91.114 59.419,84.799C56.773,78.484 55.451,70.719 55.451,61.503C55.451,44.18 58.245,29.482 63.835,17.407C69.424,5.332 76.933,-3.713 86.363,-9.729C95.792,-15.745 106.181,-18.753 117.531,-18.753C125.552,-18.753 132.357,-17.345 137.947,-14.529C143.536,-11.713 147.76,-7.894 150.619,-3.073C153.477,1.748 154.907,7.188 154.907,13.247ZM109.595,41.663C127.088,39.444 135.835,30.356 135.835,14.399C135.835,8.767 133.979,4.18 130.267,0.639C126.555,-2.902 120.816,-4.673 113.051,-4.673C104.261,-4.673 96.603,-1.9 90.075,3.647C83.547,9.194 78.512,16.895 74.971,26.751C71.429,36.607 69.659,47.85 69.659,60.479C69.659,65.77 70.192,70.463 71.259,74.559C72.325,78.655 73.691,81.834 75.355,84.095C77.019,86.356 78.619,87.487 80.155,87.487C82.288,87.487 83.909,84.543 85.019,78.655L89.243,54.463C85.915,53.951 84.464,53.738 84.891,53.823C82.331,53.396 80.667,52.607 79.899,51.455C79.131,50.303 78.747,48.831 78.747,47.039C78.747,45.162 79.28,43.668 80.347,42.559C81.413,41.45 82.885,40.895 84.763,40.895C85.616,40.895 86.256,40.938 86.683,41.023C88.731,41.364 90.309,41.578 91.419,41.663C92.528,35.007 94.107,26.09 96.155,14.911C96.667,12.01 97.84,9.94 99.675,8.703C101.509,7.466 103.664,6.847 106.139,6.847C108.955,6.847 110.981,7.38 112.219,8.447C113.456,9.514 114.075,11.199 114.075,13.503C114.075,14.868 113.989,15.978 113.819,16.831L109.595,41.663Z" style="fill:rgb(43,43,43);fill-rule:nonzero;"/>
            <path d="M163.611,90.175C158.32,90.175 154.096,88.255 150.939,84.415C147.781,80.575 146.203,75.54 146.203,69.311C146.203,62.484 147.781,56.02 150.939,49.919C154.096,43.818 158.299,38.911 163.547,35.199C168.795,31.487 174.363,29.631 180.251,29.631C182.128,29.631 183.387,29.994 184.027,30.719C184.667,31.444 185.2,32.746 185.627,34.623C187.419,34.282 189.296,34.111 191.259,34.111C195.44,34.111 197.531,35.604 197.531,38.591C197.531,40.383 196.891,44.65 195.611,51.391C193.648,61.204 192.667,68.031 192.667,71.871C192.667,73.151 192.987,74.175 193.627,74.943C194.267,75.711 195.099,76.095 196.123,76.095C197.744,76.095 199.707,75.05 202.011,72.959C204.315,70.868 207.429,67.476 211.355,62.783C212.379,61.588 213.531,60.991 214.811,60.991C215.92,60.991 216.795,61.503 217.435,62.527C218.075,63.551 218.395,64.959 218.395,66.751C218.395,70.164 217.584,72.81 215.963,74.687C212.464,79.039 208.752,82.708 204.827,85.695C200.901,88.682 197.104,90.175 193.435,90.175C190.619,90.175 188.037,89.215 185.691,87.295C183.344,85.375 181.573,82.751 180.379,79.423C175.941,86.591 170.352,90.175 163.611,90.175ZM168.219,77.247C170.096,77.247 171.888,76.138 173.595,73.919C175.301,71.7 176.539,68.756 177.307,65.087L182.043,41.535C178.459,41.62 175.152,42.964 172.123,45.567C169.093,48.17 166.683,51.604 164.891,55.871C163.099,60.138 162.203,64.66 162.203,69.439C162.203,72.084 162.736,74.047 163.803,75.327C164.869,76.607 166.341,77.247 168.219,77.247Z" style="fill:rgb(43,43,43);fill-rule:nonzero;"/>
            <path d="M273.563,61.247C274.672,61.247 275.547,61.78 276.187,62.847C276.827,63.914 277.147,65.258 277.147,66.879C277.147,68.842 276.848,70.378 276.251,71.487C275.653,72.596 274.715,73.578 273.435,74.431C266.096,79.38 260.72,83.05 257.307,85.439L249.115,90.943C245.872,108.607 241.627,122.495 236.379,132.607C231.131,142.719 224.453,147.775 216.347,147.775C211.995,147.775 208.453,146.431 205.723,143.743C202.992,141.055 201.627,137.535 201.627,133.183C201.627,127.124 204.016,120.618 208.795,113.663C213.573,106.708 222.533,98.154 235.675,87.999L236.443,83.007C234.992,85.311 233.093,87.082 230.747,88.319C228.4,89.556 226.075,90.175 223.771,90.175C218.48,90.175 214.256,88.255 211.099,84.415C207.941,80.575 206.363,75.54 206.363,69.311C206.363,62.484 207.941,56.02 211.099,49.919C214.256,43.818 218.459,38.911 223.707,35.199C228.955,31.487 234.523,29.631 240.411,29.631C242.288,29.631 243.547,29.994 244.187,30.719C244.827,31.444 245.36,32.746 245.787,34.623C247.408,34.282 249.285,34.111 251.419,34.111C253.552,34.111 255.067,34.431 255.963,35.071C256.859,35.711 257.307,36.97 257.307,38.847C257.307,39.871 257.264,40.682 257.179,41.279C256.837,43.924 255.771,50.623 253.979,61.375C253.637,63.423 253.275,65.663 252.891,68.095C252.507,70.527 252.101,73.108 251.675,75.839C258.245,70.719 264.56,66.196 270.619,62.271C271.728,61.588 272.709,61.247 273.563,61.247ZM228.379,77.247C230.341,77.247 232.219,76.052 234.011,73.663C235.803,71.274 237.083,67.86 237.851,63.423L241.947,41.535C238.448,41.62 235.205,42.964 232.219,45.567C229.232,48.17 226.843,51.604 225.051,55.871C223.259,60.138 222.363,64.66 222.363,69.439C222.363,72.084 222.896,74.047 223.963,75.327C225.029,76.607 226.501,77.247 228.379,77.247ZM217.755,135.359C219.888,135.359 222.299,132.799 224.987,127.679C227.675,122.559 230.256,114.41 232.731,103.231C226.16,108.863 221.424,113.94 218.523,118.463C215.621,122.986 214.171,126.954 214.171,130.367C214.171,131.818 214.448,133.012 215.003,133.951C215.557,134.89 216.475,135.359 217.755,135.359Z" style="fill:rgb(43,43,43);fill-rule:nonzero;"/>
            <path d="M315.163,64.831C316.272,64.831 315.97,71.767 314.63,75.857C313.673,78.776 311.045,85.055 307.163,87.103C303.28,89.151 298.651,90.175 293.275,90.175C285.083,90.175 278.725,87.722 274.203,82.815C269.68,77.908 267.419,71.274 267.419,62.911C267.419,57.023 268.656,51.54 271.131,46.463C273.605,41.386 277.04,37.354 281.435,34.367C285.829,31.38 290.8,29.887 296.347,29.887C301.296,29.887 305.264,31.359 308.251,34.303C311.237,37.247 312.731,41.236 312.731,46.271C312.731,52.159 310.619,57.215 306.395,61.439C302.171,65.663 294.981,69.012 284.827,71.487C286.875,75.412 290.331,77.375 295.195,77.375C298.693,77.375 301.573,76.564 303.835,74.943C306.096,73.322 311.018,68.772 314.005,64.932C315.029,63.652 313.883,64.831 315.163,64.831ZM294.171,42.431C291.013,42.431 288.347,44.266 286.171,47.935C283.995,51.604 282.907,56.042 282.907,61.247L282.907,61.503C287.941,60.308 291.909,58.516 294.811,56.127C297.712,53.738 299.163,50.964 299.163,47.807C299.163,46.186 298.715,44.884 297.819,43.903C296.923,42.922 295.707,42.431 294.171,42.431Z" style="fill:rgb(43,43,43);fill-rule:nonzero;"/>
        </g>
        <g transform="matrix(1,0,0,1,399.895,44.3059)">
            <path d="M100.507,29.887C102.469,29.887 103.835,30.143 104.603,30.655C105.371,31.167 105.755,32.02 105.755,33.215C105.755,35.263 104.645,42.559 102.427,55.103C100.464,67.135 99.312,74.26 98.971,76.479C95.813,98.41 91.461,115.775 85.915,128.575C80.368,141.375 72.987,147.775 63.771,147.775C59.419,147.775 55.877,146.431 53.147,143.743C50.416,141.055 49.051,137.535 49.051,133.183C49.051,129.172 49.968,125.076 51.803,120.895C53.637,116.714 57.051,111.914 62.043,106.495C67.035,101.076 74.096,94.868 83.227,87.871L83.611,84.927C84.208,81.77 84.891,77.247 85.659,71.359C83.952,77.503 81.563,82.175 78.491,85.375C75.419,88.575 72.176,90.175 68.763,90.175C64.923,90.175 61.787,88.404 59.355,84.863C56.923,81.322 55.707,76.906 55.707,71.615C55.707,65.215 49.814,64.135 50.668,58.802C51.521,53.469 58.907,64.831 58.907,66.879C58.907,70.122 64.305,78.462 69.734,78.541C74.081,78.604 78.758,66.597 80.335,63.155C81.667,60.245 88.987,44.65 91.035,37.055C91.717,34.495 92.763,32.66 94.171,31.551C95.579,30.442 97.691,29.887 100.507,29.887ZM65.179,135.359C67.312,135.359 69.701,132.884 72.347,127.935C74.992,122.986 77.637,114.751 80.283,103.231C73.712,108.778 68.955,113.834 66.011,118.399C63.067,122.964 61.595,126.954 61.595,130.367C61.595,131.818 61.872,133.012 62.427,133.951C62.981,134.89 63.899,135.359 65.179,135.359Z" style="fill:rgb(43,43,43);fill-rule:nonzero;"/>
            <path d="M136.347,92.991C131.909,92.991 128.517,91.967 126.171,89.919C123.824,87.871 122.651,85.567 122.651,83.007C122.651,80.788 123.461,78.868 125.083,77.247C126.704,75.626 129.093,74.815 132.251,74.815C133.36,74.815 134.661,74.922 136.155,75.135C137.648,75.348 138.779,75.498 139.547,75.583C139.461,73.364 138.971,71.274 138.075,69.311C137.179,67.348 136.048,65.45 134.683,63.615C133.317,61.78 132.037,60.18 130.843,58.815C128.197,63.85 125.573,68.031 122.971,71.359C120.368,74.687 117.531,77.844 114.459,80.831C112.923,82.367 111.301,83.135 109.595,83.135C108.229,83.135 107.12,82.644 106.267,81.663C105.413,80.682 104.987,79.466 104.987,78.015C104.987,76.308 105.584,74.73 106.779,73.279L108.443,71.231C113.136,65.428 116.677,60.65 119.067,56.895C120.517,54.42 122.224,51.114 124.187,46.975C126.149,42.836 128.069,38.548 129.947,34.111C131.568,30.356 134.939,28.479 140.059,28.479C142.448,28.479 144.112,28.692 145.051,29.119C145.989,29.546 146.459,30.228 146.459,31.167C146.459,31.679 146.288,32.49 145.947,33.599C145.605,34.708 145.136,35.818 144.539,36.927C143.003,39.999 142.235,42.602 142.235,44.735C142.235,46.015 142.683,47.423 143.579,48.959C144.475,50.495 145.861,52.415 147.739,54.719C150.469,58.303 152.539,61.354 153.947,63.871C155.355,66.388 156.059,69.14 156.059,72.127C156.059,72.98 155.973,74.175 155.803,75.711C159.984,74.09 164.891,69.78 170.523,62.783C171.547,61.588 172.699,60.991 173.979,60.991C175.088,60.991 175.963,61.503 176.603,62.527C177.243,63.551 177.563,64.959 177.563,66.751C177.563,69.994 176.752,72.639 175.131,74.687C170.864,79.978 166.789,83.583 162.907,85.503C159.024,87.423 154.224,88.468 148.507,88.639C145.093,91.54 141.04,92.991 136.347,92.991Z" style="fill:rgb(43,43,43);fill-rule:nonzero;"/>
            <path d="M224.283,60.991C225.392,60.991 226.267,61.503 226.907,62.527C227.547,63.551 227.867,64.959 227.867,66.751C227.867,70.164 227.056,72.81 225.435,74.687C222.277,78.527 217.819,82.068 212.059,85.311C206.299,88.554 200.133,90.175 193.563,90.175C184.603,90.175 177.648,87.743 172.699,82.879C167.749,78.015 165.275,71.359 165.275,62.911C165.275,57.023 166.512,51.54 168.987,46.463C171.461,41.386 174.896,37.354 179.291,34.367C183.685,31.38 188.656,29.887 194.203,29.887C199.152,29.887 203.12,31.359 206.107,34.303C209.093,37.247 210.587,41.236 210.587,46.271C210.587,52.159 208.475,57.215 204.251,61.439C200.027,65.663 192.88,69.012 182.811,71.487C184.944,75.412 188.997,77.375 194.971,77.375C198.811,77.375 203.184,76.031 208.091,73.343C212.997,70.655 217.243,67.135 220.827,62.783C221.851,61.588 223.003,60.991 224.283,60.991ZM192.027,42.431C188.869,42.431 186.203,44.266 184.027,47.935C181.851,51.604 180.763,56.042 180.763,61.247L180.763,61.503C185.797,60.308 189.765,58.516 192.667,56.127C195.568,53.738 197.019,50.964 197.019,47.807C197.019,46.186 196.571,44.884 195.675,43.903C194.779,42.922 193.563,42.431 192.027,42.431Z" style="fill:rgb(43,43,43);fill-rule:nonzero;"/>
            <path d="M266.011,60.991C267.12,60.991 267.995,61.503 268.635,62.527C269.275,63.551 269.595,64.959 269.595,66.751C269.595,70.164 268.784,72.81 267.163,74.687C263.493,79.21 259.504,82.922 255.195,85.823C250.885,88.724 246,90.175 240.539,90.175C233.029,90.175 227.461,86.762 223.835,79.935C220.208,73.108 218.395,64.276 218.395,53.439C218.395,43.028 219.739,31.167 222.427,17.855C225.115,4.543 229.083,-6.892 234.331,-16.449C239.579,-26.006 245.829,-30.785 253.083,-30.785C257.179,-30.785 260.4,-28.886 262.747,-25.089C265.093,-21.292 266.267,-15.852 266.267,-8.769C266.267,1.386 263.451,13.162 257.819,26.559C252.187,39.956 244.549,53.226 234.907,66.367C235.504,69.866 236.485,72.362 237.851,73.855C239.216,75.348 241.008,76.095 243.227,76.095C246.725,76.095 249.797,75.092 252.443,73.087C255.088,71.082 258.459,67.647 262.555,62.783C263.579,61.588 264.731,60.991 266.011,60.991ZM250.267,-18.113C248.304,-18.113 246.085,-14.572 243.611,-7.489C241.136,-0.406 238.96,8.383 237.083,18.879C235.205,29.375 234.181,39.444 234.011,49.087C240.069,39.103 244.891,29.098 248.475,19.071C252.059,9.044 253.851,-0.108 253.851,-8.385C253.851,-14.87 252.656,-18.113 250.267,-18.113Z" style="fill:rgb(43,43,43);fill-rule:nonzero;"/>
            <path d="M310.299,53.695C312.688,53.695 313.883,55.487 313.883,59.071C313.883,65.812 308.592,69.183 298.011,69.183C295.963,69.183 293.019,68.799 289.179,68.031C290.288,73.322 291.205,79.188 291.931,85.631C292.656,92.074 293.019,97.386 293.019,101.567C293.019,110.783 291.525,117.823 288.539,122.687C285.552,127.551 281.627,129.983 276.763,129.983C270.619,129.983 266.245,125.631 263.643,116.927C261.04,108.223 259.739,95.082 259.739,77.503C259.739,61.119 261.509,44.5 265.051,27.647C268.592,10.794 273.456,-3.158 279.643,-14.209C285.829,-25.26 292.635,-30.785 300.059,-30.785C304.069,-30.785 307.205,-28.993 309.467,-25.409C311.728,-21.825 312.859,-17.004 312.859,-10.945C312.859,9.108 300.869,30.954 276.891,54.591C276.037,62.954 275.611,70.292 275.611,76.607C275.611,85.396 275.909,94.42 276.507,103.679C277.104,112.938 278.085,117.567 279.451,117.567C282.011,117.567 283.291,113.13 283.291,104.255C283.291,97.599 282.843,91.156 281.947,84.927C281.051,78.698 279.835,72.127 278.299,65.215C278.213,64.106 278.576,62.698 279.387,60.991C280.197,59.284 281.2,57.791 282.395,56.511C283.589,55.231 284.656,54.591 285.595,54.591C287.301,54.591 289.349,54.676 291.739,54.847C292.507,54.932 293.403,54.975 294.427,54.975C297.84,54.975 301.637,54.676 305.819,54.079C306.501,53.994 307.227,53.908 307.995,53.823C308.763,53.738 309.531,53.695 310.299,53.695ZM297.371,-18.113C295.835,-18.113 293.936,-15.51 291.675,-10.305C289.413,-5.1 287.173,1.791 284.955,10.367C282.736,18.943 280.816,28.01 279.195,37.567C286.021,29.802 291.269,21.716 294.939,13.311C298.608,4.906 300.485,-2.966 300.571,-10.305C300.571,-15.51 299.504,-18.113 297.371,-18.113Z" style="fill:rgb(43,43,43);fill-rule:nonzero;"/>
        </g>
        <g transform="matrix(1,0,0,1,-94.6893,33.8928)">
            <g transform="matrix(1,0,0,1,405.664,0)">
                <path d="M10.67,57.4L9.83,79.06L24.88,64.06L24.77,64.06C24.883,63.986 24.985,63.895 25.07,63.79L25.15,63.79L49.05,9C49.76,7.38 47.14,4.54 43.2,2.66C39.26,0.78 35.47,0.61 34.76,2.24L10.78,57L10.67,57.4Z" style="fill:rgb(43,43,43);fill-rule:nonzero;"/>
            </g>
            <g transform="matrix(1,0,0,1,405.664,0)">
                <path d="M34.9,1.91C34.41,3.16 35.81,5.09 38.24,6.75L14.18,61.67C12,60.22 10.78,58.25 10.75,57L34.89,1.9L34.9,1.91Z" style="fill:rgb(43,43,43);fill-rule:nonzero;"/>
            </g>
            <g transform="matrix(1,0,0,1,405.664,0)">
                <path d="M25.3,63.58C24.76,64.82 22.3,64.95 19.56,64.18L43.61,9.28C46.34,10.05 48.61,9.91 49.17,8.73L26,62C26,62 25.43,63.29 25.3,63.58Z" style="fill:rgb(43,43,43);fill-rule:nonzero;"/>
            </g>
            <g transform="matrix(1,0,0,1,405.664,0)">
                <path d="M16.64,63.07C15.785,62.669 14.962,62.201 14.18,61.67L38.24,6.75C39.04,7.299 39.883,7.784 40.76,8.2C41.68,8.635 42.633,8.996 43.61,9.28L19.61,64.18C18.589,63.9 17.595,63.528 16.64,63.07Z" style="fill:rgb(43,43,43);fill-rule:nonzero;"/>
            </g>
            <g transform="matrix(1,0,0,1,405.664,0)">
                <path d="M44.68,6.94C44.17,7.4 42.56,7.1 41.09,6.28C39.62,5.46 38.83,4.41 39.34,4C39.85,3.59 41.45,3.84 42.93,4.67C44.41,5.5 45.19,6.49 44.68,6.94Z" style="fill:rgb(43,43,43);fill-rule:nonzero;stroke:black;stroke-opacity:0.08;stroke-width:2.21px;"/>
            </g>
            <g transform="matrix(1,0,0,1,405.664,0)">
                <path d="M10,70.83L9.72,79.13L15.61,73.36C14.15,74 10.67,72.83 10,70.83Z" style="fill:rgb(43,43,43);fill-rule:nonzero;"/>
            </g>
        </g>
        <g transform="matrix(-1,0,0,1,804.538,33.8928)">
            <g transform="matrix(1,0,0,1,405.664,0)">
                <path d="M10.67,57.4L9.83,79.06L24.88,64.06L24.77,64.06C24.883,63.986 24.985,63.895 25.07,63.79L25.15,63.79L49.05,9C49.76,7.38 47.14,4.54 43.2,2.66C39.26,0.78 35.47,0.61 34.76,2.24L10.78,57L10.67,57.4Z" style="fill:rgb(43,43,43);fill-rule:nonzero;"/>
            </g>
            <g transform="matrix(1,0,0,1,405.664,0)">
                <path d="M34.9,1.91C34.41,3.16 35.81,5.09 38.24,6.75L14.18,61.67C12,60.22 10.78,58.25 10.75,57L34.89,1.9L34.9,1.91Z" style="fill:rgb(43,43,43);fill-rule:nonzero;"/>
            </g>
            <g transform="matrix(1,0,0,1,405.664,0)">
                <path d="M25.3,63.58C24.76,64.82 22.3,64.95 19.56,64.18L43.61,9.28C46.34,10.05 48.61,9.91 49.17,8.73L26,62C26,62 25.43,63.29 25.3,63.58Z" style="fill:rgb(43,43,43);fill-rule:nonzero;"/>
            </g>
            <g transform="matrix(1,0,0,1,405.664,0)">
                <path d="M16.64,63.07C15.785,62.669 14.962,62.201 14.18,61.67L38.24,6.75C39.04,7.299 39.883,7.784 40.76,8.2C41.68,8.635 42.633,8.996 43.61,9.28L19.61,64.18C18.589,63.9 17.595,63.528 16.64,63.07Z" style="fill:rgb(43,43,43);fill-rule:nonzero;"/>
            </g>
            <g transform="matrix(1,0,0,1,405.664,0)">
                <path d="M44.68,6.94C44.17,7.4 42.56,7.1 41.09,6.28C39.62,5.46 38.83,4.41 39.34,4C39.85,3.59 41.45,3.84 42.93,4.67C44.41,5.5 45.19,6.49 44.68,6.94Z" style="fill:rgb(43,43,43);fill-rule:nonzero;stroke:black;stroke-opacity:0.08;stroke-width:2.21px;"/>
            </g>
            <g transform="matrix(1,0,0,1,405.664,0)">
                <path d="M10,70.83L9.72,79.13L15.61,73.36C14.15,74 10.67,72.83 10,70.83Z" style="fill:rgb(43,43,43);fill-rule:nonzero;"/>
            </g>
        </g>
        <g transform="matrix(1,0,0,1,-27.2334,33.8928)">
            <g transform="matrix(1,0,0,1,405.664,0)">
                <path d="M10.67,57.4L9.83,79.06L24.88,64.06L24.77,64.06C24.883,63.986 24.985,63.895 25.07,63.79L25.15,63.79L49.05,9C49.76,7.38 47.14,4.54 43.2,2.66C39.26,0.78 35.47,0.61 34.76,2.24L10.78,57L10.67,57.4Z" style="fill:rgb(43,43,43);fill-rule:nonzero;"/>
            </g>
            <g transform="matrix(1,0,0,1,405.664,0)">
                <path d="M34.9,1.91C34.41,3.16 35.81,5.09 38.24,6.75L14.18,61.67C12,60.22 10.78,58.25 10.75,57L34.89,1.9L34.9,1.91Z" style="fill:rgb(43,43,43);fill-rule:nonzero;"/>
            </g>
            <g transform="matrix(1,0,0,1,405.664,0)">
                <path d="M25.3,63.58C24.76,64.82 22.3,64.95 19.56,64.18L43.61,9.28C46.34,10.05 48.61,9.91 49.17,8.73L26,62C26,62 25.43,63.29 25.3,63.58Z" style="fill:rgb(43,43,43);fill-rule:nonzero;"/>
            </g>
            <g transform="matrix(1,0,0,1,405.664,0)">
                <path d="M16.64,63.07C15.785,62.669 14.962,62.201 14.18,61.67L38.24,6.75C39.04,7.299 39.883,7.784 40.76,8.2C41.68,8.635 42.633,8.996 43.61,9.28L19.61,64.18C18.589,63.9 17.595,63.528 16.64,63.07Z" style="fill:rgb(43,43,43);fill-rule:nonzero;"/>
            </g>
            <g transform="matrix(1,0,0,1,405.664,0)">
                <path d="M44.68,6.94C44.17,7.4 42.56,7.1 41.09,6.28C39.62,5.46 38.83,4.41 39.34,4C39.85,3.59 41.45,3.84 42.93,4.67C44.41,5.5 45.19,6.49 44.68,6.94Z" style="fill:rgb(43,43,43);fill-rule:nonzero;stroke:black;stroke-opacity:0.08;stroke-width:2.21px;"/>
            </g>
            <g transform="matrix(1,0,0,1,405.664,0)">
                <path d="M10,70.83L9.72,79.13L15.61,73.36C14.15,74 10.67,72.83 10,70.83Z" style="fill:rgb(43,43,43);fill-rule:nonzero;"/>
            </g>
        </g>
        <g transform="matrix(-1,0,0,1,871.706,33.8928)">
            <g transform="matrix(1,0,0,1,405.664,0)">
                <path d="M10.67,57.4L9.83,79.06L24.88,64.06L24.77,64.06C24.883,63.986 24.985,63.895 25.07,63.79L25.15,63.79L49.05,9C49.76,7.38 47.14,4.54 43.2,2.66C39.26,0.78 35.47,0.61 34.76,2.24L10.78,57L10.67,57.4Z" style="fill:rgb(43,43,43);fill-rule:nonzero;"/>
            </g>
            <g transform="matrix(1,0,0,1,405.664,0)">
                <path d="M34.9,1.91C34.41,3.16 35.81,5.09 38.24,6.75L14.18,61.67C12,60.22 10.78,58.25 10.75,57L34.89,1.9L34.9,1.91Z" style="fill:rgb(43,43,43);fill-rule:nonzero;"/>
            </g>
            <g transform="matrix(1,0,0,1,405.664,0)">
                <path d="M25.3,63.58C24.76,64.82 22.3,64.95 19.56,64.18L43.61,9.28C46.34,10.05 48.61,9.91 49.17,8.73L26,62C26,62 25.43,63.29 25.3,63.58Z" style="fill:rgb(43,43,43);fill-rule:nonzero;"/>
            </g>
            <g transform="matrix(1,0,0,1,405.664,0)">
                <path d="M16.64,63.07C15.785,62.669 14.962,62.201 14.18,61.67L38.24,6.75C39.04,7.299 39.883,7.784 40.76,8.2C41.68,8.635 42.633,8.996 43.61,9.28L19.61,64.18C18.589,63.9 17.595,63.528 16.64,63.07Z" style="fill:rgb(43,43,43);fill-rule:nonzero;"/>
            </g>
            <g transform="matrix(1,0,0,1,405.664,0)">
                <path d="M44.68,6.94C44.17,7.4 42.56,7.1 41.09,6.28C39.62,5.46 38.83,4.41 39.34,4C39.85,3.59 41.45,3.84 42.93,4.67C44.41,5.5 45.19,6.49 44.68,6.94Z" style="fill:rgb(43,43,43);fill-rule:nonzero;stroke:black;stroke-opacity:0.08;stroke-width:2.21px;"/>
            </g>
            <g transform="matrix(1,0,0,1,405.664,0)">
                <path d="M10,70.83L9.72,79.13L15.61,73.36C14.15,74 10.67,72.83 10,70.83Z" style="fill:rgb(43,43,43);fill-rule:nonzero;"/>
            </g>
        </g>
    </g>
</svg>
